# Blender 5.0.1
# www.blender.org
mtllib Sewer_floor.mtl
o Serwers_002.mesh.004
v -4.386931 -1.472444 -0.000000
v -0.000000 -1.472444 4.386930
v 0.000000 -1.472444 -4.386930
v -0.979492 -1.472444 -4.386930
v -4.386931 -1.472444 -0.979492
v -0.979493 -1.472444 4.386930
v -4.386931 -0.701551 -1.157323
v -1.157324 -0.701551 4.386930
v -1.157324 -0.701551 -4.386930
v -2.648009 -0.701551 -4.386930
v -2.648010 -0.701551 4.386930
v -4.386931 -0.701551 -2.648009
v -4.386931 -1.472444 0.979492
v -4.386931 -0.701551 1.157323
v -4.386931 -0.701551 2.648009
v -1.157324 -0.701551 -1.157323
v -2.648009 -0.701551 -1.157323
v -0.979493 -1.472444 -0.979492
v 0.000000 -1.472444 -0.979492
v -2.648009 -0.701551 -2.648009
v -1.157324 -0.701551 -2.648009
v -0.979493 -1.472444 0.979492
v 0.000000 -1.472444 0.979492
v -0.631380 -1.472444 0.979492
v -1.157324 -0.701551 1.157323
v -2.648010 -0.701551 1.157323
v -2.648010 -0.701551 2.648009
v -1.157324 -0.701551 2.648009
v -0.979493 -1.472444 0.000000
v -0.979493 -1.472444 0.631379
v 0.000000 -1.472444 -0.489746
v 0.000000 -1.472444 0.000000
v -0.572534 -1.472444 0.572534
v 4.386931 -1.472444 0.000000
v 0.979493 -1.472444 -4.386930
v 4.386931 -1.472444 -0.979492
v 0.979493 -1.472444 4.386930
v 4.386931 -0.701551 -1.157323
v 1.157324 -0.701551 4.386930
v 1.157324 -0.701551 -4.386930
v 2.648010 -0.701551 -4.386930
v 2.648010 -0.701551 4.386930
v 4.386931 -0.701551 -2.648008
v 4.386931 -1.472444 0.979492
v 4.386931 -0.701551 1.157324
v 4.386931 -0.701550 2.648009
v 1.157324 -0.701551 -1.157323
v 2.648010 -0.701551 -1.157323
v 0.979493 -1.472444 -0.979492
v 2.648010 -0.701551 -2.648009
v 1.157324 -0.701551 -2.648009
v 0.979493 -1.472444 0.979492
v 0.631380 -1.472444 0.979492
v 1.157324 -0.701551 1.157323
v 2.648010 -0.701551 1.157323
v 2.648010 -0.701551 2.648009
v 1.157324 -0.701551 2.648009
v 0.979493 -1.472444 0.000000
v 0.979493 -1.472444 0.631380
v 0.572535 -1.472444 0.572534
vn -0.0000 1.0000 -0.0000
vn -0.0000 0.2248 0.9744
vn -0.0000 0.2248 -0.9744
vn 0.9744 0.2248 -0.0000
vn -0.9744 0.2248 -0.0000
vt 0.308444 1.237606
vt 0.308444 1.006753
vt -0.494644 1.006753
vt -0.494644 1.237606
vt 0.539298 1.237606
vt 0.266532 0.195233
vt -0.084803 0.195233
vt -0.494644 0.195233
vt -0.494644 0.013544
vt 0.308444 0.013544
vt -0.084803 0.997347
vt -0.084803 0.646012
vt -0.494644 0.646012
vt -0.494644 0.997347
vt 0.736117 0.995588
vt 1.040246 0.995588
vt 1.040246 0.691459
vt 0.308444 1.088799
vt -0.494644 1.237607
vt -0.494644 1.006753
vt 0.404359 1.102668
vt 0.390490 1.006753
vt -0.084803 0.195233
vt 0.266532 0.195233
vt -0.494644 0.013544
vt -0.494644 0.195233
vt -0.084803 0.646012
vt -0.084803 0.997347
vt -0.040246 0.691459
vt -0.040246 0.995588
vt 0.263883 0.995588
vt 0.770151 1.236073
vt 1.573239 1.237779
vt 1.573239 1.007217
vt 0.770151 1.006753
vt -0.494644 1.006753
vt -0.494644 1.237606
vt 1.573239 0.195233
vt 1.163398 0.195233
vt 0.812064 0.195233
vt 0.770151 0.013544
vt 1.573240 0.013544
vt -0.494644 0.013544
vt 1.163399 0.646012
vt 1.163399 0.997347
vt 1.573240 0.997347
vt 1.573240 0.646012
vt -0.084803 0.684337
vt -0.499574 0.684337
vt -0.499574 0.997347
vt -0.084803 0.997347
vt 0.266532 0.997347
vt 0.002985 0.647853
vt 0.002985 0.999616
vt 0.354747 0.999616
vt 0.654724 1.237606
vt -0.494644 0.013544
vt -0.494644 0.195233
vt -0.494644 0.646012
vt -0.494644 1.237607
vt -0.494644 0.997347
vt 1.573239 1.007217
vt -0.494644 1.006753
vt 1.573239 0.013544
vt -0.494644 0.013544
vt 1.573240 0.646012
vt 1.573240 0.997347
s 1
usemtl concrete_base.006
f 29/1/1 18/2/1 5/3/1 1/4/1
f 29/1/1 32/5/1 18/2/1
f 16/6/2 17/7/2 7/8/2 5/9/2 18/10/2
f 17/11/1 20/12/1 12/13/1 7/14/1
f 16/15/1 21/16/1 20/17/1
f 22/2/1 30/18/1 29/1/1 1/19/1 13/20/1
f 30/18/1 33/21/1 32/5/1 29/1/1
f 24/22/1 33/21/1 22/2/1
f 26/23/3 25/24/3 22/10/3 13/25/3 14/26/3
f 27/27/1 26/28/1 14/14/1 15/13/1
f 27/29/1 28/30/1 25/31/1
f 19/32/1 3/33/1 4/34/1 18/35/1
f 24/18/1 22/2/1 6/36/1 2/37/1 23/1/1
f 9/38/4 21/39/4 16/40/4 18/41/4 4/42/4
f 25/24/4 28/23/4 8/26/4 6/43/4 22/10/4
f 20/44/1 21/45/1 9/46/1 10/47/1
f 27/48/1 11/49/1 8/50/1 28/51/1
f 25/52/1 26/28/1 27/48/1
f 20/53/1 17/54/1 16/55/1
f 33/21/1 30/22/1 22/2/1
f 33/21/1 24/18/1 23/1/1 32/5/1
f 32/5/1 31/56/1 19/32/1 18/35/1
f 58/1/1 34/19/1 36/3/1 49/2/1
f 58/1/1 49/2/1 32/5/1
f 47/6/2 49/10/2 36/57/2 38/58/2 48/7/2
f 48/11/1 38/14/1 43/59/1 50/12/1
f 47/15/1 50/17/1 51/16/1
f 52/2/1 44/3/1 34/60/1 58/1/1 59/18/1
f 59/18/1 58/1/1 32/5/1 60/21/1
f 55/23/3 45/26/3 44/9/3 52/10/3 54/24/3
f 56/27/1 46/13/1 45/61/1 55/28/1
f 56/29/1 54/31/1 57/30/1
f 19/32/1 49/35/1 35/62/1 3/33/1
f 53/18/1 23/1/1 2/4/1 37/63/1 52/2/1
f 53/18/1 52/2/1 60/21/1
f 40/38/5 35/64/5 49/41/5 47/40/5 51/39/5
f 54/24/5 52/10/5 37/65/5 39/26/5 57/23/5
f 50/44/1 41/66/1 40/67/1 51/45/1
f 56/48/1 57/51/1 39/50/1 42/49/1
f 54/52/1 56/48/1 55/28/1
f 50/53/1 47/55/1 48/54/1
f 60/21/1 52/2/1 59/22/1
f 60/21/1 32/5/1 23/1/1 53/18/1
f 32/5/1 49/35/1 19/32/1 31/56/1
o Serwers_003.mesh.005
v -17.718929 -1.472444 -0.000002
v -3.945067 -1.472445 0.000000
v -3.945067 -1.472445 -0.979492
v -17.718929 -1.472444 -0.979494
v -17.718929 -0.701551 -1.157325
v -3.945067 -0.701552 -1.157323
v -3.945067 -0.701552 -2.648009
v -17.718927 -0.701551 -2.648011
v -3.945068 -1.472445 0.979492
v -17.718929 -1.472444 0.979490
v -17.718929 -0.701551 1.157321
v -3.945068 -0.701552 1.157323
v -3.945068 -0.701552 2.648009
v -17.718929 -0.701551 2.648006
vn -0.0000 1.0000 -0.0000
vn -0.0000 0.2248 0.9744
vn -0.0000 0.2248 -0.9744
vt -0.258957 1.006753
vt -0.258957 1.237606
vt 2.987360 1.237606
vt 2.987360 1.006753
vt -0.258957 0.195233
vt -0.258957 0.013544
vt 2.987360 0.013544
vt 2.987360 0.195233
vt -0.258957 0.646012
vt -0.258957 0.997347
vt 2.987361 0.997347
vt 2.987360 0.646012
s 1
usemtl concrete_base.001
f 64/68/6 61/69/6 62/70/6 63/71/6
f 65/72/7 64/73/7 63/74/7 66/75/7
f 68/76/6 65/77/6 66/78/6 67/79/6
f 70/68/6 69/71/6 62/70/6 61/69/6
f 71/72/8 72/75/8 69/74/8 70/73/8
f 74/76/6 73/79/6 72/78/6 71/77/6
o Serwers.002.mesh.005
v -17.203434 -1.472444 -0.000002
v -21.590364 -1.472444 -4.386932
v -17.203434 -1.472444 0.979490
v -20.610872 -1.472444 -4.386932
v -17.203434 -0.701551 1.157321
v -20.433041 -0.701551 -4.386932
v -18.942356 -0.701551 -4.386932
v -17.203434 -0.701551 2.648006
v -17.203434 -1.472444 -0.979494
v -17.203434 -0.701551 -1.157325
v -17.203434 -0.701551 -2.648011
v -20.433041 -0.701551 1.157321
v -18.942354 -0.701551 1.157321
v -20.610872 -1.472444 0.979490
v -21.590364 -1.472444 0.979490
v -18.942354 -0.701551 2.648007
v -20.433041 -0.701551 2.648007
v -20.610872 -1.472444 -0.979494
v -21.590364 -1.472444 -0.979494
v -20.958984 -1.472444 -0.979494
v -20.433041 -0.701551 -1.157325
v -18.942356 -0.701551 -1.157325
v -18.942356 -0.701551 -2.648011
v -20.433041 -0.701551 -2.648011
v -20.610872 -1.472444 -0.000002
v -20.610872 -1.472444 -0.631381
v -21.590364 -1.472444 0.489744
v -21.590364 -1.472444 -0.000002
v -21.017830 -1.472444 -0.572536
v -22.569859 -1.472444 -4.386932
v -22.747688 -0.701551 -4.386932
v -24.238375 -0.701551 -4.386931
v -22.747688 -0.701551 1.157321
v -24.238375 -0.701551 1.157322
v -22.569857 -1.472444 0.979490
v -24.238373 -0.701551 2.648007
v -22.747688 -0.701551 2.648007
v -22.569857 -1.472444 -0.979494
v -22.221745 -1.472444 -0.979494
v -22.747688 -0.701551 -1.157325
v -24.238375 -0.701551 -1.157325
v -24.238375 -0.701551 -2.648010
v -22.747688 -0.701551 -2.648010
v -22.569857 -1.472444 -0.000002
v -22.569857 -1.472444 -0.631381
v -22.162899 -1.472444 -0.572535
vn -0.0000 1.0000 -0.0000
vn -0.0000 0.2248 -0.9744
vn -0.0000 -1.0000 -0.0000
vn -0.0000 0.2248 0.9744
vn -0.9744 0.2248 -0.0000
vn 0.9744 0.2248 -0.0000
vt 0.308444 1.237606
vt 0.308444 1.006753
vt -0.494644 1.006753
vt -0.494644 1.237606
vt 0.539298 1.237606
vt 0.266532 0.195233
vt -0.084803 0.195233
vt -0.494644 0.195233
vt -0.494644 0.013544
vt 0.308444 0.013544
vt -0.084803 0.997347
vt -0.084803 0.646012
vt -0.494644 0.646012
vt -0.494644 0.997347
vt 0.286431 0.993740
vt 0.286431 0.678370
vt -0.028939 0.678370
vt 0.308444 1.088799
vt -0.494644 1.237606
vt 0.404359 1.102668
vt 0.390490 1.006753
vt -0.084803 0.195233
vt 0.266532 0.195233
vt -0.494644 0.013544
vt -0.494644 0.195233
vt -0.084803 0.646012
vt -0.084803 0.997347
vt -0.494644 0.997347
vt -0.040246 0.691459
vt -0.040246 0.995588
vt 0.263883 0.995588
vt -0.494644 1.006753
vt -0.494644 1.237606
vt -0.494644 0.195233
vt -0.494644 0.013544
vt -0.084803 0.684337
vt -0.499574 0.684337
vt -0.499574 0.997347
vt -0.084803 0.997347
vt 0.266532 0.997347
vt 0.002985 0.647853
vt 0.002985 0.999616
vt 0.354747 0.999616
vt 0.540353 0.267298
vt 0.540353 0.138265
vt 0.540353 0.009232
vt 0.282287 0.009232
vt 0.307067 0.009087
vt 0.066198 0.009087
vt 0.307067 0.249956
vt 0.776119 0.993740
vt 1.091489 0.678370
vt 0.776119 0.678370
vt 0.462331 0.009087
vt 0.447860 0.109163
vt -0.494644 1.237607
vt -0.494644 1.006753
vt 0.277052 0.012437
vt 0.522747 0.012437
vt 0.768441 0.012437
vt 0.813048 0.205807
vt 0.232445 0.205807
vt -0.494644 0.013544
vt 0.718527 0.992064
vt 1.000000 0.710591
vt 0.718527 0.710591
vt 0.000000 0.710591
vt 0.281473 0.992064
vt 0.281473 0.710591
vt 0.547936 0.009087
vt 0.547936 0.249956
vt 0.547936 0.094692
vt 0.798419 0.009232
vt 0.278401 0.012236
vt 0.524096 0.012236
vt 0.682470 0.012236
vt 0.769790 0.012236
vt 0.814397 0.205606
vt 0.233794 0.205606
s 1
usemtl concrete_base.003
f 99/80/9 88/81/9 77/82/9 75/83/9
f 99/80/9 102/84/9 88/81/9
f 86/85/10 87/86/10 79/87/10 77/88/10 88/89/10
f 87/90/9 90/91/9 82/92/9 79/93/9
f 86/94/9 91/95/9 90/96/9
f 92/81/9 100/97/9 99/80/9 75/98/9 83/82/9
f 100/97/9 103/99/9 102/84/9 99/80/9
f 94/100/11 92/81/11 103/99/11
f 96/101/12 95/102/12 92/89/12 83/103/12 84/104/12
f 97/105/9 96/106/9 84/107/9 85/92/9
f 97/108/9 98/109/9 95/110/9
f 94/97/9 92/81/9 78/111/9 76/112/9 93/80/9
f 95/102/13 98/101/13 80/113/13 78/114/13 92/89/13
f 97/115/9 81/116/9 80/117/9 98/118/9
f 95/119/9 96/106/9 97/115/9
f 90/120/9 87/121/9 86/122/9
f 103/99/11 92/81/11 100/100/11
f 103/99/9 94/97/9 93/80/9 102/84/9
f 102/123/9 101/124/9 89/125/9 88/126/9
f 118/127/9 109/128/9 102/129/9
f 107/130/9 110/131/9 111/132/9
f 119/133/9 118/127/9 102/129/9 120/134/9
f 113/100/11 120/99/11 112/81/11
f 116/108/9 114/110/9 117/109/9
f 113/97/9 93/80/9 76/135/9 104/136/9 112/81/9
f 88/137/10 89/138/10 109/139/10 107/140/10 86/141/10
f 114/102/14 112/89/14 104/142/14 105/113/14 117/101/14
f 116/115/9 117/118/9 105/117/9 106/116/9
f 114/143/9 116/144/9 115/145/9
f 110/146/9 107/147/9 108/148/9
f 120/134/9 112/149/9 119/133/9
f 120/134/9 102/129/9 93/150/9 113/151/9
f 102/123/9 109/152/9 89/125/9 101/124/9
f 108/148/9 107/147/9 114/143/9 115/145/9
f 109/153/14 118/154/14 119/155/14 112/156/14 114/157/14 107/158/14
f 91/95/9 86/94/9 107/130/9 111/132/9
l 110 116
l 90 110
o Serwers_003.mesh.006
v 3.871436 -1.472444 0.000000
v 17.645298 -1.472445 0.000004
v 17.645298 -1.472445 -0.979488
v 3.871436 -1.472444 -0.979492
v 3.871436 -0.701551 -1.157323
v 17.645298 -0.701552 -1.157319
v 17.645298 -0.701552 -2.648005
v 3.871437 -0.701551 -2.648008
v 17.645296 -1.472445 0.979496
v 3.871436 -1.472444 0.979492
v 3.871436 -0.701551 1.157323
v 17.645296 -0.701552 1.157327
v 17.645296 -0.701552 2.648013
v 3.871435 -0.701551 2.648009
vn -0.0000 1.0000 -0.0000
vn -0.0000 0.2248 0.9744
vn -0.0000 0.2248 -0.9744
vt -0.258957 1.006753
vt -0.258957 1.237606
vt 2.987360 1.237606
vt 2.987360 1.006753
vt -0.258957 0.195233
vt -0.258957 0.013544
vt 2.987360 0.013544
vt 2.987360 0.195233
vt -0.258957 0.646012
vt -0.258957 0.997347
vt 2.987361 0.997347
vt 2.987360 0.646012
s 1
usemtl concrete_base.001
f 124/159/15 121/160/15 122/161/15 123/162/15
f 125/163/16 124/164/16 123/165/16 126/166/16
f 128/167/15 125/168/15 126/169/15 127/170/15
f 130/159/15 129/162/15 122/161/15 121/160/15
f 131/163/17 132/166/17 129/165/17 130/164/17
f 134/167/15 133/170/15 132/169/15 131/168/15
o Serwers_013.mesh.003
v 30.204481 -1.472444 -11.867314
v 27.430620 -1.472444 -11.867317
v 27.430620 -1.472444 -10.887825
v 30.204481 -1.472444 -10.887823
v 30.204479 -0.701551 -10.709991
v 27.430618 -0.701551 -10.709994
v 27.430618 -0.701551 -9.219309
v 30.204479 -0.701551 -9.219306
v 27.430622 -1.472444 -12.846809
v 30.204483 -1.472444 -12.846807
v 30.204483 -0.701551 -13.024638
v 27.430622 -0.701551 -13.024641
v 27.430622 -0.701551 -14.515326
v 30.204483 -0.701551 -14.515324
v 25.226601 -1.472444 -11.394563
v 25.601423 -1.472444 -10.489625
v 25.669476 -0.701551 -10.325330
v 26.239918 -0.701551 -8.948109
v 24.851776 -1.472444 -12.299500
v 24.783726 -0.701551 -12.463796
v 24.213282 -0.701551 -13.841017
v 23.371250 -1.472444 -10.114374
v 24.063839 -1.472444 -9.421752
v 24.189583 -0.701551 -9.296003
v 25.243629 -0.701551 -8.241903
v 22.678661 -1.472444 -10.806997
v 22.552919 -0.701551 -10.932746
v 21.498871 -0.701551 -11.986845
v 22.147017 -1.472444 -8.221638
v 23.051935 -1.472444 -7.846769
v 23.216228 -0.701551 -7.778710
v 24.593422 -0.701551 -7.208200
v 21.242098 -1.472444 -8.596505
v 21.077805 -0.701551 -8.664564
v 19.700611 -0.701551 -9.235075
v 21.740265 -1.472444 -6.004487
v 22.719757 -1.472444 -6.004439
v 22.897587 -0.701551 -6.004431
v 24.388273 -0.701551 -6.004359
v 20.760773 -1.472444 -6.004533
v 20.582941 -0.701551 -6.004542
v 19.092255 -0.701551 -6.004613
v 21.740261 -1.472444 -3.073916
v 22.719753 -1.472444 -3.073870
v 22.897585 -0.701551 -3.073861
v 24.388271 -0.701551 -3.073791
v 20.760769 -1.472444 -3.073964
v 20.582939 -0.701551 -3.073974
v 19.092251 -0.701551 -3.074043
vn -0.0000 1.0000 -0.0000
vn -0.0000 0.2248 -0.9744
vn -0.1029 0.2240 -0.9692
vn -0.1060 0.2239 -0.9688
vn -0.0000 0.2248 0.9744
vn 0.1002 0.2239 0.9694
vn 0.1032 0.2238 0.9691
vn -0.3889 0.2247 -0.8935
vn -0.3898 0.2247 -0.8931
vn 0.3839 0.2248 0.8956
vn 0.3845 0.2248 0.8953
vn -0.7012 0.2247 -0.6766
vn -0.7019 0.2247 -0.6759
vn 0.6974 0.2248 0.6805
vn 0.6979 0.2248 0.6800
vn -0.9067 0.2247 -0.3568
vn -0.9071 0.2247 -0.3559
vn 0.9047 0.2248 0.3619
vn 0.9050 0.2248 0.3612
vn -0.9709 0.2236 -0.0856
vn -0.9707 0.2235 -0.0878
vn 0.9707 0.2236 0.0883
vn 0.9705 0.2236 0.0906
vn -0.9744 0.2248 -0.0000
vn 0.9744 0.2248 -0.0000
vt -0.258957 1.006753
vt -0.258957 1.237606
vt 0.394805 1.237606
vt 0.394805 1.006753
vt -0.258957 0.195233
vt -0.258957 0.013544
vt 0.394805 0.013544
vt 0.394805 0.195233
vt -0.258957 0.646012
vt -0.258957 0.997347
vt 0.394805 0.997347
vt 0.394806 0.646012
vt 0.390915 0.210513
vt 0.390915 0.008307
vt 0.870715 0.008307
vt 0.852865 0.210513
vt 0.679194 0.016340
vt 0.679194 0.188649
vt 1.270825 0.188649
vt 1.255614 0.016340
vt 1.565067 0.655575
vt 1.565067 0.995880
vt 1.153542 0.995880
vt 1.153542 0.655575
vt 2.076005 0.991921
vt 2.076005 0.680318
vt 1.388861 0.680318
vt 1.388861 0.991921
vt 0.409373 0.014675
vt 0.409373 0.225059
vt 0.811466 0.225059
vt 0.811466 0.014675
vt 1.714931 0.224079
vt 1.714931 0.004190
vt 1.208889 0.004190
vt 1.208889 0.224079
vt 1.213560 0.225059
vt 1.213560 0.014675
vt 0.702848 0.004190
vt 0.702848 0.224079
vt 1.274024 0.008307
vt 1.241042 0.210513
vt 1.769451 0.188649
vt 1.741345 0.016340
vt 0.742017 0.995880
vt 0.742017 0.655575
vt 0.701717 0.680318
vt 0.701717 0.991921
vt 1.615654 0.225059
vt 1.615654 0.014675
vt 0.196807 0.004190
vt 0.196807 0.224079
vt 1.248938 0.210057
vt 1.281922 0.007851
vt 0.868802 0.007851
vt 0.850950 0.210057
vt 1.742298 0.017140
vt 1.770406 0.189450
vt 1.263424 0.189450
vt 1.248212 0.017140
vt 0.330492 0.995880
vt 0.330492 0.655575
vt 0.014573 0.680318
vt 0.014573 0.991921
vt -0.672571 0.680318
vt -0.672571 0.991921
vt 2.017747 0.225059
vt 2.017747 0.014675
vt -0.309234 0.004190
vt -0.309234 0.224079
vt 0.385557 0.007851
vt 0.385554 0.210057
vt 0.668860 0.189450
vt 0.668858 0.017140
vt -0.081033 0.995880
vt -0.081033 0.655575
vt -1.370076 0.680318
vt -1.370076 0.991921
vt 2.582991 0.225059
vt 2.582991 0.014675
vt -0.936157 0.004190
vt -0.936157 0.224079
vt -0.360208 0.037134
vt -0.360190 0.239366
vt 0.669381 -0.008627
vt 0.669381 0.163696
vt 0.034635 0.163696
vt 0.034635 -0.008627
vt -0.857511 0.995880
vt -0.857511 0.655575
s 1
usemtl concrete_base.001
f 138/171/18 135/172/18 136/173/18 137/174/18
f 139/175/19 138/176/19 137/177/20 140/178/21
f 142/179/18 139/180/18 140/181/18 141/182/18
f 144/171/18 143/174/18 136/173/18 135/172/18
f 145/175/22 146/178/23 143/177/24 144/176/22
f 148/179/18 147/182/18 146/181/18 145/180/18
f 140/183/21 137/184/20 150/185/25 151/186/26
f 143/187/24 146/188/23 154/189/27 153/190/28
f 141/191/18 140/192/18 151/193/18 152/194/18
f 146/195/18 147/196/18 155/197/18 154/198/18
f 137/199/18 136/200/18 149/201/18 150/202/18
f 136/203/18 143/204/18 153/205/18 149/206/18
f 150/202/18 149/201/18 156/207/18 157/208/18
f 149/206/18 153/205/18 160/209/18 156/210/18
f 151/186/26 150/185/25 157/211/29 158/212/30
f 153/190/28 154/189/27 161/213/31 160/214/32
f 152/194/18 151/193/18 158/215/18 159/216/18
f 154/198/18 155/197/18 162/217/18 161/218/18
f 157/208/18 156/207/18 163/219/18 164/220/18
f 156/210/18 160/209/18 167/221/18 163/222/18
f 158/223/30 157/224/29 164/225/33 165/226/34
f 160/227/32 161/228/31 168/229/35 167/230/36
f 159/216/18 158/215/18 165/231/18 166/232/18
f 161/218/18 162/217/18 169/233/18 168/234/18
f 168/234/18 169/233/18 176/235/18 175/236/18
f 164/220/18 163/219/18 170/237/18 171/238/18
f 163/222/18 167/221/18 174/239/18 170/240/18
f 165/226/34 164/225/33 171/241/37 172/242/38
f 167/230/36 168/229/35 175/243/39 174/244/40
f 166/232/18 165/231/18 172/245/18 173/246/18
f 175/236/18 176/235/18 183/247/18 182/248/18
f 171/238/18 170/237/18 177/249/18 178/250/18
f 170/240/18 174/239/18 181/251/18 177/252/18
f 172/242/38 171/241/37 178/253/41 179/254/41
f 174/255/40 175/256/39 182/257/42 181/258/42
f 173/246/18 172/245/18 179/259/18 180/260/18
o Serwers_003.mesh.007
v -0.000001 -1.472444 3.871436
v 0.000000 -1.472445 17.645298
v 0.979492 -1.472445 17.645296
v 0.979491 -1.472444 3.871436
v 1.157322 -0.701551 3.871436
v 1.157324 -0.701552 17.645296
v 2.648009 -0.701552 17.645296
v 2.648008 -0.701551 3.871436
v -0.979492 -1.472445 17.645298
v -0.979493 -1.472444 3.871436
v -1.157324 -0.701551 3.871436
v -1.157323 -0.701552 17.645298
v -2.648008 -0.701552 17.645298
v -2.648010 -0.701551 3.871436
vn -0.0000 1.0000 -0.0000
vn -0.9744 0.2248 -0.0000
vn 0.9744 0.2248 -0.0000
vt -0.258957 1.006753
vt -0.258957 1.237606
vt 2.987360 1.237606
vt 2.987360 1.006753
vt -0.258957 0.195233
vt -0.258957 0.013544
vt 2.987360 0.013544
vt 2.987360 0.195233
vt -0.258957 0.646012
vt -0.258957 0.997347
vt 2.987361 0.997347
vt 2.987360 0.646012
s 1
usemtl concrete_base.001
f 187/261/43 184/262/43 185/263/43 186/264/43
f 188/265/44 187/266/44 186/267/44 189/268/44
f 191/269/43 188/270/43 189/271/43 190/272/43
f 193/261/43 192/264/43 185/263/43 184/262/43
f 194/265/45 195/268/45 192/267/45 193/266/45
f 197/269/43 196/272/43 195/271/43 194/270/43
o Serwers.002.mesh.008
v 4.386930 -1.472444 21.590366
v 0.000001 -1.472444 17.203434
v 4.386930 -1.472444 22.569859
v 0.979494 -1.472444 17.203434
v 4.386930 -0.701551 22.747690
v 1.157325 -0.701551 17.203434
v 2.648010 -0.701551 17.203434
v 4.386929 -0.701551 24.238375
v 4.386931 -1.472444 20.610874
v 4.386931 -0.701551 20.433043
v 4.386931 -0.701551 18.942358
v 1.157322 -0.701551 22.747688
v 2.648008 -0.701551 22.747688
v 0.979491 -1.472444 22.569857
v -0.000002 -1.472444 22.569857
v 2.648007 -0.701551 24.238375
v 1.157322 -0.701551 24.238373
v 0.979492 -1.472444 20.610872
v -0.000001 -1.472444 20.610872
v 0.631379 -1.472444 20.610872
v 1.157323 -0.701551 20.433043
v 2.648009 -0.701551 20.433043
v 2.648009 -0.701551 18.942356
v 1.157324 -0.701551 18.942356
v 0.979492 -1.472444 21.590364
v 0.979492 -1.472444 20.958984
v -0.000001 -1.472444 22.080111
v -0.000001 -1.472444 21.590364
v 0.572533 -1.472444 21.017830
v -0.979492 -1.472444 17.203434
v -1.157323 -0.701551 17.203434
v -2.648009 -0.701551 17.203434
v -1.157326 -0.701551 22.747686
v -2.648011 -0.701551 22.747686
v -0.979495 -1.472444 22.569857
v -2.648012 -0.701551 24.238373
v -1.157326 -0.701551 24.238373
v -0.979494 -1.472444 20.610872
v -0.631381 -1.472444 20.610872
v -1.157325 -0.701551 20.433041
v -2.648010 -0.701551 20.433041
v -2.648010 -0.701551 18.942354
v -1.157324 -0.701551 18.942354
v -0.979494 -1.472444 21.590364
v -0.979494 -1.472444 20.958984
v -0.572536 -1.472444 21.017830
vn -0.0000 1.0000 -0.0000
vn -0.0000 0.2248 -0.9744
vn -0.0000 -1.0000 -0.0000
vn -0.0000 0.2248 0.9744
vn -0.9744 0.2248 -0.0000
vn 0.9744 0.2248 -0.0000
vt 0.308444 1.237606
vt 0.308444 1.006753
vt -0.494644 1.006753
vt -0.494644 1.237606
vt 0.539298 1.237606
vt 0.266532 0.195233
vt -0.084803 0.195233
vt -0.494644 0.195233
vt -0.494644 0.013544
vt 0.308444 0.013544
vt -0.084803 0.997347
vt -0.084803 0.646012
vt -0.494644 0.646012
vt -0.494644 0.997347
vt 0.286431 0.993740
vt 0.286431 0.678370
vt -0.028939 0.678370
vt 0.308444 1.088799
vt -0.494644 1.237606
vt 0.404359 1.102668
vt 0.390490 1.006753
vt -0.084803 0.195233
vt 0.266532 0.195233
vt -0.494644 0.013544
vt -0.494644 0.195233
vt -0.084803 0.646012
vt -0.084803 0.997347
vt -0.494644 0.997347
vt -0.040246 0.691459
vt -0.040246 0.995588
vt 0.263883 0.995588
vt -0.494644 1.006753
vt -0.494644 1.237606
vt -0.494644 0.195233
vt -0.494644 0.013544
vt -0.084803 0.684337
vt -0.499574 0.684337
vt -0.499574 0.997347
vt -0.084803 0.997347
vt 0.266532 0.997347
vt 0.002985 0.647853
vt 0.002985 0.999616
vt 0.354747 0.999616
vt 0.540353 0.267298
vt 0.540353 0.138265
vt 0.540353 0.009232
vt 0.282287 0.009232
vt 0.307067 0.009087
vt 0.066198 0.009087
vt 0.307067 0.249956
vt 0.776119 0.993740
vt 1.091489 0.678370
vt 0.776119 0.678370
vt 0.462331 0.009087
vt 0.447860 0.109163
vt -0.494644 1.237607
vt -0.494644 1.006753
vt 0.277052 0.012437
vt 0.522747 0.012437
vt 0.768441 0.012437
vt 0.813048 0.205807
vt 0.232445 0.205807
vt -0.494644 0.013544
vt 0.718527 0.992064
vt 1.000000 0.710591
vt 0.718527 0.710591
vt 0.000000 0.710591
vt 0.281473 0.992064
vt 0.281473 0.710591
vt 0.547936 0.009087
vt 0.547936 0.249956
vt 0.547936 0.094692
vt 0.798419 0.009232
vt 0.278401 0.012236
vt 0.524096 0.012236
vt 0.682470 0.012236
vt 0.769790 0.012236
vt 0.814397 0.205606
vt 0.233794 0.205606
s 1
usemtl concrete_base.003
f 222/273/46 211/274/46 200/275/46 198/276/46
f 222/273/46 225/277/46 211/274/46
f 209/278/47 210/279/47 202/280/47 200/281/47 211/282/47
f 210/283/46 213/284/46 205/285/46 202/286/46
f 209/287/46 214/288/46 213/289/46
f 215/274/46 223/290/46 222/273/46 198/291/46 206/275/46
f 223/290/46 226/292/46 225/277/46 222/273/46
f 217/293/48 215/274/48 226/292/48
f 219/294/49 218/295/49 215/282/49 206/296/49 207/297/49
f 220/298/46 219/299/46 207/300/46 208/285/46
f 220/301/46 221/302/46 218/303/46
f 217/290/46 215/274/46 201/304/46 199/305/46 216/273/46
f 218/295/50 221/294/50 203/306/50 201/307/50 215/282/50
f 220/308/46 204/309/46 203/310/46 221/311/46
f 218/312/46 219/299/46 220/308/46
f 213/313/46 210/314/46 209/315/46
f 226/292/48 215/274/48 223/293/48
f 226/292/46 217/290/46 216/273/46 225/277/46
f 225/316/46 224/317/46 212/318/46 211/319/46
f 241/320/46 232/321/46 225/322/46
f 230/323/46 233/324/46 234/325/46
f 242/326/46 241/320/46 225/322/46 243/327/46
f 236/293/48 243/292/48 235/274/48
f 239/301/46 237/303/46 240/302/46
f 236/290/46 216/273/46 199/328/46 227/329/46 235/274/46
f 211/330/47 212/331/47 232/332/47 230/333/47 209/334/47
f 237/295/51 235/282/51 227/335/51 228/306/51 240/294/51
f 239/308/46 240/311/46 228/310/46 229/309/46
f 237/336/46 239/337/46 238/338/46
f 233/339/46 230/340/46 231/341/46
f 243/327/46 235/342/46 242/326/46
f 243/327/46 225/322/46 216/343/46 236/344/46
f 225/316/46 232/345/46 212/318/46 224/317/46
f 231/341/46 230/340/46 237/336/46 238/338/46
f 232/346/51 241/347/51 242/348/51 235/349/51 237/350/51 230/351/51
f 214/288/46 209/287/46 230/323/46 234/325/46
l 233 239
l 213 233
o Serwers_008.mesh.005
v 4.163452 -1.472444 21.590368
v 7.627935 -1.472444 21.590370
v 7.627936 -1.472444 20.610878
v 4.163453 -1.472444 20.610876
v 4.163453 -0.701551 20.433044
v 7.627936 -0.701551 20.433046
v 7.627937 -0.701551 18.942362
v 4.163454 -0.701551 18.942358
v 7.627934 -1.472444 22.569862
v 4.163451 -1.472444 22.569860
v 4.163451 -0.701551 22.747690
v 7.627934 -0.701551 22.747694
v 7.627933 -0.701551 24.238379
v 4.163450 -0.701551 24.238377
vn -0.0000 1.0000 -0.0000
vn -0.0000 0.2248 0.9744
vn -0.0000 0.2248 -0.9744
vt -0.258957 1.006753
vt -0.258957 1.237606
vt 0.557576 1.237606
vt 0.557576 1.006753
vt -0.258957 0.195233
vt -0.258957 0.013544
vt 0.557576 0.013544
vt 0.557576 0.195233
vt -0.258957 0.646012
vt -0.258957 0.997347
vt 0.557576 0.997347
vt 0.557576 0.646012
s 1
usemtl concrete_base.005
f 247/352/52 244/353/52 245/354/52 246/355/52
f 248/356/53 247/357/53 246/358/53 249/359/53
f 251/360/52 248/361/52 249/362/52 250/363/52
f 253/352/52 252/355/52 245/354/52 244/353/52
f 254/356/54 255/359/54 252/358/54 253/357/54
f 257/360/52 256/363/52 255/362/52 254/361/52
o Serwers_002.mesh.005
v 7.173611 -1.472444 21.590370
v 11.560538 -1.472444 25.977304
v 11.560546 -1.472444 17.203444
v 10.581053 -1.472444 17.203442
v 7.173612 -1.472444 20.610878
v 10.581046 -1.472444 25.977303
v 7.173612 -0.701551 20.433048
v 10.403214 -0.701551 25.977303
v 10.403222 -0.701551 17.203442
v 8.912537 -0.701551 17.203442
v 8.912529 -0.701551 25.977303
v 7.173614 -0.701551 18.942362
v 7.173611 -1.472444 22.569862
v 7.173610 -0.701551 22.747694
v 7.173609 -0.701551 24.238380
v 10.403219 -0.701551 20.433050
v 8.912534 -0.701551 20.433048
v 10.581050 -1.472444 20.610882
v 11.560543 -1.472444 20.610882
v 8.912535 -0.701551 18.942364
v 10.403220 -0.701551 18.942364
v 10.581049 -1.472444 22.569866
v 11.560541 -1.472444 22.569866
v 10.929161 -1.472444 22.569866
v 10.403217 -0.701551 22.747696
v 8.912532 -0.701551 22.747696
v 8.912531 -0.701551 24.238380
v 10.403216 -0.701551 24.238382
v 10.581049 -1.472444 21.590374
v 10.581049 -1.472444 22.221752
v 11.560543 -1.472444 21.100628
v 11.560542 -1.472444 21.590374
v 10.988008 -1.472444 22.162907
v 15.947474 -1.472444 21.590378
v 12.540039 -1.472444 17.203445
v 15.947474 -1.472444 20.610886
v 12.540031 -1.472444 25.977306
v 15.947474 -0.701551 20.433054
v 12.717862 -0.701551 25.977306
v 12.717870 -0.701551 17.203445
v 14.208555 -0.701551 17.203445
v 14.208548 -0.701551 25.977306
v 15.947475 -0.701551 18.942369
v 15.947473 -1.472444 22.569870
v 15.947472 -0.701551 22.747702
v 15.947472 -0.701550 24.238386
v 12.717867 -0.701551 20.433052
v 14.208552 -0.701551 20.433054
v 12.540036 -1.472444 20.610884
v 14.208553 -0.701551 18.942368
v 12.717868 -0.701551 18.942366
v 12.540034 -1.472444 22.569866
v 12.191921 -1.472444 22.569866
v 12.717865 -0.701551 22.747698
v 14.208550 -0.701551 22.747700
v 14.208549 -0.701551 24.238384
v 12.717864 -0.701551 24.238384
v 12.540035 -1.472444 21.590376
v 12.540034 -1.472444 22.221754
v 12.133077 -1.472444 22.162909
vn -0.0000 1.0000 -0.0000
vn -0.0000 0.2248 0.9744
vn -0.0000 0.2248 -0.9744
vn 0.9744 0.2248 -0.0000
vn -0.9744 0.2248 -0.0000
vt 0.308444 1.237606
vt 0.308444 1.006753
vt -0.494644 1.006753
vt -0.494644 1.237606
vt 0.539298 1.237606
vt 0.266532 0.195233
vt -0.084803 0.195233
vt -0.494644 0.195233
vt -0.494644 0.013544
vt 0.308444 0.013544
vt -0.084803 0.997347
vt -0.084803 0.646012
vt -0.494644 0.646012
vt -0.494644 0.997347
vt 0.736117 0.995588
vt 1.040246 0.995588
vt 1.040246 0.691459
vt 0.308444 1.088799
vt -0.494644 1.237607
vt -0.494644 1.006753
vt 0.404359 1.102668
vt 0.390490 1.006753
vt -0.084803 0.195233
vt 0.266532 0.195233
vt -0.494644 0.013544
vt -0.494644 0.195233
vt -0.084803 0.646012
vt -0.084803 0.997347
vt -0.040246 0.691459
vt -0.040246 0.995588
vt 0.263883 0.995588
vt 0.770151 1.236073
vt 1.573239 1.237779
vt 1.573239 1.007217
vt 0.770151 1.006753
vt -0.494644 1.006753
vt -0.494644 1.237606
vt 1.573239 0.195233
vt 1.163398 0.195233
vt 0.812064 0.195233
vt 0.770151 0.013544
vt 1.573240 0.013544
vt -0.494644 0.013544
vt 1.163399 0.646012
vt 1.163399 0.997347
vt 1.573240 0.997347
vt 1.573240 0.646012
vt -0.084803 0.684337
vt -0.499574 0.684337
vt -0.499574 0.997347
vt -0.084803 0.997347
vt 0.266532 0.997347
vt 0.002985 0.647853
vt 0.002985 0.999616
vt 0.354747 0.999616
vt 0.654724 1.237606
vt -0.494644 0.013544
vt -0.494644 0.195233
vt -0.494644 0.646012
vt -0.494644 1.237607
vt -0.494644 0.997347
vt 1.573239 1.007217
vt -0.494644 1.006753
vt 1.573239 0.013544
vt -0.494644 0.013544
vt 1.573240 0.646012
vt 1.573240 0.997347
s 1
usemtl concrete_base.006
f 286/364/55 275/365/55 262/366/55 258/367/55
f 286/364/55 289/368/55 275/365/55
f 273/369/56 274/370/56 264/371/56 262/372/56 275/373/56
f 274/374/55 277/375/55 269/376/55 264/377/55
f 273/378/55 278/379/55 277/380/55
f 279/365/55 287/381/55 286/364/55 258/382/55 270/383/55
f 287/381/55 290/384/55 289/368/55 286/364/55
f 281/385/55 290/384/55 279/365/55
f 283/386/57 282/387/57 279/373/57 270/388/57 271/389/57
f 284/390/55 283/391/55 271/377/55 272/376/55
f 284/392/55 285/393/55 282/394/55
f 276/395/55 260/396/55 261/397/55 275/398/55
f 281/381/55 279/365/55 263/399/55 259/400/55 280/364/55
f 266/401/58 278/402/58 273/403/58 275/404/58 261/405/58
f 282/387/58 285/386/58 265/389/58 263/406/58 279/373/58
f 277/407/55 278/408/55 266/409/55 267/410/55
f 284/411/55 268/412/55 265/413/55 285/414/55
f 282/415/55 283/391/55 284/411/55
f 277/416/55 274/417/55 273/418/55
f 290/384/55 287/385/55 279/365/55
f 290/384/55 281/381/55 280/364/55 289/368/55
f 289/368/55 288/419/55 276/395/55 275/398/55
f 315/364/55 291/382/55 293/366/55 306/365/55
f 315/364/55 306/365/55 289/368/55
f 304/369/56 306/373/56 293/420/56 295/421/56 305/370/56
f 305/374/55 295/377/55 300/422/55 307/375/55
f 304/378/55 307/380/55 308/379/55
f 309/365/55 301/366/55 291/423/55 315/364/55 316/381/55
f 316/381/55 315/364/55 289/368/55 317/384/55
f 312/386/57 302/389/57 301/372/57 309/373/57 311/387/57
f 313/390/55 303/376/55 302/424/55 312/391/55
f 313/392/55 311/394/55 314/393/55
f 276/395/55 306/398/55 292/425/55 260/396/55
f 310/381/55 280/364/55 259/367/55 294/426/55 309/365/55
f 310/381/55 309/365/55 317/384/55
f 297/401/59 292/427/59 306/404/59 304/403/59 308/402/59
f 311/387/59 309/373/59 294/428/59 296/389/59 314/386/59
f 307/407/55 298/429/55 297/430/55 308/408/55
f 313/411/55 314/414/55 296/413/55 299/412/55
f 311/415/55 313/411/55 312/391/55
f 307/416/55 304/418/55 305/417/55
f 317/384/55 309/365/55 316/385/55
f 317/384/55 289/368/55 280/364/55 310/381/55
f 289/368/55 306/398/55 276/395/55 288/419/55
o Serwers_007.mesh.005
v 11.560536 -1.472444 31.977308
v 11.560540 -1.472444 25.203447
v 10.581048 -1.472444 25.203447
v 10.581044 -1.472444 31.977308
v 10.403214 -0.701551 31.977306
v 10.403216 -0.701551 25.203445
v 8.912531 -0.701551 25.203445
v 8.912528 -0.701551 31.977306
v 12.540032 -1.472444 25.203447
v 12.540029 -1.472444 31.977308
v 12.717860 -0.701551 31.977308
v 12.717863 -0.701551 25.203447
v 14.208549 -0.701551 25.203449
v 14.208546 -0.701551 31.977310
v 8.912530 -0.701551 28.056259
v 8.912529 -0.701551 29.124493
v 7.210034 -0.701551 29.124493
v 7.210035 -0.701551 28.056259
vn -0.0000 1.0000 -0.0000
vn 0.9744 0.2248 -0.0000
vn -0.9744 0.2248 -0.0000
vt -0.258957 1.006753
vt -0.258957 1.237606
vt 1.337553 1.237606
vt 1.337553 1.006753
vt -0.258957 0.195233
vt -0.258957 0.013544
vt 1.337553 0.013544
vt 1.337553 0.195233
vt -0.258957 0.646012
vt 1.337553 0.646012
vt 1.337553 0.997347
vt -0.258957 0.997347
vt 0.413414 0.646012
vt 0.665182 0.646012
vt 0.413414 0.244756
vt 0.665182 0.244756
s 1
usemtl concrete_base.001
f 321/431/60 318/432/60 319/433/60 320/434/60
f 322/435/61 321/436/61 320/437/61 323/438/61
f 327/431/60 326/434/60 319/433/60 318/432/60
f 328/435/62 329/438/62 326/437/62 327/436/62
f 331/439/60 330/440/60 329/441/60 328/442/60
f 333/443/60 325/439/60 322/442/60 323/441/60 324/440/60 332/444/60
f 334/445/60 333/443/60 332/444/60 335/446/60
o SerwersP.003_mesh.010
v 7.545754 -0.701550 29.124489
v 7.545755 -0.701550 28.056257
v 7.545754 -0.701550 29.831030
v 7.545756 -0.701550 27.349712
v 3.359034 -0.701550 29.831028
v 3.359035 -0.701550 27.349710
vn -0.0000 1.0000 -0.0000
vt 0.997824 0.994752
vt 0.997824 0.005248
vt -0.671763 0.005248
vt -0.671763 0.994752
s 1
usemtl brick_pavement.001
f 338/447/63 339/448/63 341/449/63 340/450/63
l 339 337
l 338 336
o SerwersP.003_mesh.011
v 3.845754 -0.701550 29.124485
v 3.845755 -0.701550 28.056253
v 3.845754 -0.701550 29.831026
v 3.845755 -0.701550 27.349709
v -0.340966 -0.701550 29.831024
v -0.340965 -0.701550 27.349707
vn -0.0000 1.0000 -0.0000
vt 0.997824 0.994752
vt 0.997824 0.005248
vt -0.671763 0.005248
vt -0.671763 0.994752
s 1
usemtl brick_pavement.001
f 344/451/64 345/452/64 347/453/64 346/454/64
l 345 343
l 344 342
o Serwers.002.mesh.009
v 15.173612 -1.472444 21.590376
v 19.560539 -1.472444 25.977310
v 15.173613 -1.472444 20.610884
v 18.581047 -1.472444 25.977310
v 15.173613 -0.701551 20.433054
v 18.403215 -0.701551 25.977310
v 16.912531 -0.701551 25.977308
v 15.173614 -0.701551 18.942368
v 15.173611 -1.472444 22.569868
v 15.173611 -0.701551 22.747700
v 15.173610 -0.701551 24.238386
v 18.403221 -0.701551 20.433056
v 16.912535 -0.701551 20.433054
v 18.581051 -1.472444 20.610888
v 19.560543 -1.472444 20.610888
v 16.912537 -0.701551 18.942369
v 18.403221 -0.701551 18.942369
v 18.581049 -1.472444 22.569872
v 19.560543 -1.472444 22.569872
v 18.929163 -1.472444 22.569872
v 18.403219 -0.701551 22.747702
v 16.912533 -0.701551 22.747702
v 16.912531 -0.701551 24.238386
v 18.403217 -0.701551 24.238388
v 18.581051 -1.472444 21.590380
v 18.581049 -1.472444 22.221758
v 19.560543 -1.472444 21.100634
v 19.560543 -1.472444 21.590380
v 18.988008 -1.472444 22.162912
v 20.540033 -1.472444 25.977310
v 20.717863 -0.701551 25.977310
v 22.208549 -0.701551 25.977312
v 20.717869 -0.701551 20.433058
v 22.208553 -0.701551 20.433060
v 20.540037 -1.472444 20.610889
v 22.208555 -0.701551 18.942373
v 20.717869 -0.701551 18.942371
v 20.540035 -1.472444 22.569872
v 20.191923 -1.472444 22.569872
v 20.717867 -0.701551 22.747704
v 22.208551 -0.701551 22.747705
v 22.208551 -0.701551 24.238390
v 20.717865 -0.701551 24.238390
v 20.540035 -1.472444 21.590380
v 20.540035 -1.472444 22.221760
v 20.133078 -1.472444 22.162914
vn -0.0000 1.0000 -0.0000
vn -0.0000 0.2248 0.9744
vn -0.0000 -1.0000 -0.0000
vn -0.0000 0.2248 -0.9744
vn 0.9744 0.2248 -0.0000
vn -0.9744 0.2248 -0.0000
vt 0.308444 1.237606
vt 0.308444 1.006753
vt -0.494644 1.006753
vt -0.494644 1.237606
vt 0.539298 1.237606
vt 0.266532 0.195233
vt -0.084803 0.195233
vt -0.494644 0.195233
vt -0.494644 0.013544
vt 0.308444 0.013544
vt -0.084803 0.997347
vt -0.084803 0.646012
vt -0.494644 0.646012
vt -0.494644 0.997347
vt 0.286431 0.993740
vt 0.286431 0.678370
vt -0.028939 0.678370
vt 0.308444 1.088799
vt -0.494644 1.237606
vt 0.404359 1.102668
vt 0.390490 1.006753
vt -0.084803 0.195233
vt 0.266532 0.195233
vt -0.494644 0.013544
vt -0.494644 0.195233
vt -0.084803 0.646012
vt -0.084803 0.997347
vt -0.494644 0.997347
vt -0.040246 0.691459
vt -0.040246 0.995588
vt 0.263883 0.995588
vt -0.494644 1.006753
vt -0.494644 1.237606
vt -0.494644 0.195233
vt -0.494644 0.013544
vt -0.084803 0.684337
vt -0.499574 0.684337
vt -0.499574 0.997347
vt -0.084803 0.997347
vt 0.266532 0.997347
vt 0.002985 0.647853
vt 0.002985 0.999616
vt 0.354747 0.999616
vt 0.540353 0.267298
vt 0.540353 0.138265
vt 0.540353 0.009232
vt 0.282287 0.009232
vt 0.307067 0.009087
vt 0.066198 0.009087
vt 0.307067 0.249956
vt 0.776119 0.993740
vt 1.091489 0.678370
vt 0.776119 0.678370
vt 0.462331 0.009087
vt 0.447860 0.109163
vt -0.494644 1.237607
vt -0.494644 1.006753
vt 0.277052 0.012437
vt 0.522747 0.012437
vt 0.768441 0.012437
vt 0.813048 0.205807
vt 0.232445 0.205807
vt -0.494644 0.013544
vt 0.718527 0.992064
vt 1.000000 0.710591
vt 0.718527 0.710591
vt 0.000000 0.710591
vt 0.281473 0.992064
vt 0.281473 0.710591
vt 0.547936 0.009087
vt 0.547936 0.249956
vt 0.547936 0.094692
vt 0.798419 0.009232
vt 0.278401 0.012236
vt 0.524096 0.012236
vt 0.682470 0.012236
vt 0.769790 0.012236
vt 0.814397 0.205606
vt 0.233794 0.205606
s 1
usemtl concrete_base.003
f 372/455/65 361/456/65 350/457/65 348/458/65
f 372/455/65 375/459/65 361/456/65
f 359/460/66 360/461/66 352/462/66 350/463/66 361/464/66
f 360/465/65 363/466/65 355/467/65 352/468/65
f 359/469/65 364/470/65 363/471/65
f 365/456/65 373/472/65 372/455/65 348/473/65 356/457/65
f 373/472/65 376/474/65 375/459/65 372/455/65
f 367/475/67 365/456/67 376/474/67
f 369/476/68 368/477/68 365/464/68 356/478/68 357/479/68
f 370/480/65 369/481/65 357/482/65 358/467/65
f 370/483/65 371/484/65 368/485/65
f 367/472/65 365/456/65 351/486/65 349/487/65 366/455/65
f 368/477/69 371/476/69 353/488/69 351/489/69 365/464/69
f 370/490/65 354/491/65 353/492/65 371/493/65
f 368/494/65 369/481/65 370/490/65
f 363/495/65 360/496/65 359/497/65
f 376/474/67 365/456/67 373/475/67
f 376/474/65 367/472/65 366/455/65 375/459/65
f 375/498/65 374/499/65 362/500/65 361/501/65
f 391/502/65 382/503/65 375/504/65
f 380/505/65 383/506/65 384/507/65
f 392/508/65 391/502/65 375/504/65 393/509/65
f 386/475/67 393/474/67 385/456/67
f 389/483/65 387/485/65 390/484/65
f 386/472/65 366/455/65 349/510/65 377/511/65 385/456/65
f 361/512/66 362/513/66 382/514/66 380/515/66 359/516/66
f 387/477/70 385/464/70 377/517/70 378/488/70 390/476/70
f 389/490/65 390/493/65 378/492/65 379/491/65
f 387/518/65 389/519/65 388/520/65
f 383/521/65 380/522/65 381/523/65
f 393/509/65 385/524/65 392/508/65
f 393/509/65 375/504/65 366/525/65 386/526/65
f 375/498/65 382/527/65 362/500/65 374/499/65
f 381/523/65 380/522/65 387/518/65 388/520/65
f 382/528/70 391/529/70 392/530/70 385/531/70 387/532/70 380/533/70
f 364/470/65 359/469/65 380/505/65 384/507/65
l 383 389
l 363 383
o Serwers_008.mesh.006
v 19.560539 -1.472444 28.987469
v 19.560541 -1.472444 25.522985
v 18.581049 -1.472444 25.522985
v 18.581047 -1.472444 28.987469
v 18.403217 -0.701551 28.987469
v 18.403217 -0.701551 25.522985
v 16.912533 -0.701551 25.522985
v 16.912531 -0.701551 28.987469
v 20.540033 -1.472444 25.522985
v 20.540031 -1.472444 28.987469
v 20.717863 -0.701551 28.987469
v 20.717865 -0.701551 25.522985
v 22.208549 -0.701551 25.522987
v 22.208549 -0.701551 28.987471
vn -0.0000 1.0000 -0.0000
vn 0.9744 0.2248 -0.0000
vn -0.9744 0.2248 -0.0000
vt -0.258957 1.006753
vt -0.258957 1.237606
vt 0.557576 1.237606
vt 0.557576 1.006753
vt -0.258957 0.195233
vt -0.258957 0.013544
vt 0.557576 0.013544
vt 0.557576 0.195233
vt -0.258957 0.646012
vt -0.258957 0.997347
vt 0.557576 0.997347
vt 0.557576 0.646012
s 1
usemtl concrete_base.005
f 397/534/71 394/535/71 395/536/71 396/537/71
f 398/538/72 397/539/72 396/540/72 399/541/72
f 401/542/71 398/543/71 399/544/71 400/545/71
f 403/534/71 402/537/71 395/536/71 394/535/71
f 404/538/73 405/541/73 402/540/73 403/539/73
f 407/542/71 406/545/71 405/544/71 404/543/71
o Serwers.002.mesh.010
v 15.947467 -1.472444 35.590378
v 11.560538 -1.472444 31.203444
v 15.947466 -1.472444 36.569870
v 12.540031 -1.472444 31.203444
v 15.947466 -0.701551 36.747700
v 12.717862 -0.701551 31.203445
v 14.208548 -0.701551 31.203445
v 15.947465 -0.701551 38.238384
v 15.947468 -1.472444 34.610886
v 15.947468 -0.701551 34.433052
v 15.947469 -0.701551 32.942368
v 12.717858 -0.701551 36.747696
v 14.208544 -0.701551 36.747700
v 12.540028 -1.472444 36.569866
v 11.560534 -1.472444 36.569866
v 14.208543 -0.701551 38.238384
v 12.717857 -0.701551 38.238384
v 12.540029 -1.472444 34.610882
v 11.560536 -1.472444 34.610882
v 12.191916 -1.472444 34.610882
v 12.717860 -0.701551 34.433052
v 14.208546 -0.701551 34.433052
v 14.208547 -0.701551 32.942368
v 12.717861 -0.701551 32.942368
v 12.540029 -1.472444 35.590374
v 12.540029 -1.472444 34.958996
v 11.560535 -1.472444 36.080120
v 11.560535 -1.472444 35.590374
v 12.133070 -1.472444 35.017841
v 10.581045 -1.472444 31.203444
v 10.403214 -0.701551 31.203442
v 8.912529 -0.701551 31.203442
v 10.403211 -0.701551 36.747696
v 8.912525 -0.701551 36.747696
v 10.581041 -1.472444 36.569866
v 8.912524 -0.701551 38.238380
v 10.403210 -0.701551 38.238380
v 10.581043 -1.472444 34.610882
v 10.929155 -1.472444 34.610882
v 10.403213 -0.701551 34.433048
v 8.912527 -0.701551 34.433048
v 8.912527 -0.701551 32.942364
v 10.403214 -0.701551 32.942364
v 10.581042 -1.472444 35.590374
v 10.581043 -1.472444 34.958992
v 10.988001 -1.472444 35.017841
vn -0.0000 1.0000 -0.0000
vn -0.0000 0.2248 -0.9744
vn -0.0000 -1.0000 -0.0000
vn -0.0000 0.2248 0.9744
vn -0.9744 0.2248 -0.0000
vn 0.9744 0.2248 -0.0000
vt 0.308444 1.237606
vt 0.308444 1.006753
vt -0.494644 1.006753
vt -0.494644 1.237606
vt 0.539298 1.237606
vt 0.266532 0.195233
vt -0.084803 0.195233
vt -0.494644 0.195233
vt -0.494644 0.013544
vt 0.308444 0.013544
vt -0.084803 0.997347
vt -0.084803 0.646012
vt -0.494644 0.646012
vt -0.494644 0.997347
vt 0.286431 0.993740
vt 0.286431 0.678370
vt -0.028939 0.678370
vt 0.308444 1.088799
vt -0.494644 1.237606
vt 0.404359 1.102668
vt 0.390490 1.006753
vt -0.084803 0.195233
vt 0.266532 0.195233
vt -0.494644 0.013544
vt -0.494644 0.195233
vt -0.084803 0.646012
vt -0.084803 0.997347
vt -0.494644 0.997347
vt -0.040246 0.691459
vt -0.040246 0.995588
vt 0.263883 0.995588
vt -0.494644 1.006753
vt -0.494644 1.237606
vt -0.494644 0.195233
vt -0.494644 0.013544
vt -0.084803 0.684337
vt -0.499574 0.684337
vt -0.499574 0.997347
vt -0.084803 0.997347
vt 0.266532 0.997347
vt 0.002985 0.647853
vt 0.002985 0.999616
vt 0.354747 0.999616
vt 0.540353 0.267298
vt 0.540353 0.138265
vt 0.540353 0.009232
vt 0.282287 0.009232
vt 0.307067 0.009087
vt 0.066198 0.009087
vt 0.307067 0.249956
vt 0.776119 0.993740
vt 1.091489 0.678370
vt 0.776119 0.678370
vt 0.462331 0.009087
vt 0.447860 0.109163
vt -0.494644 1.237607
vt -0.494644 1.006753
vt 0.277052 0.012437
vt 0.522747 0.012437
vt 0.768441 0.012437
vt 0.813048 0.205807
vt 0.232445 0.205807
vt -0.494644 0.013544
vt 0.718527 0.992064
vt 1.000000 0.710591
vt 0.718527 0.710591
vt 0.000000 0.710591
vt 0.281473 0.992064
vt 0.281473 0.710591
vt 0.547936 0.009087
vt 0.547936 0.249956
vt 0.547936 0.094692
vt 0.798419 0.009232
vt 0.278401 0.012236
vt 0.524096 0.012236
vt 0.682470 0.012236
vt 0.769790 0.012236
vt 0.814397 0.205606
vt 0.233794 0.205606
s 1
usemtl concrete_base.003
f 432/546/74 421/547/74 410/548/74 408/549/74
f 432/546/74 435/550/74 421/547/74
f 419/551/75 420/552/75 412/553/75 410/554/75 421/555/75
f 420/556/74 423/557/74 415/558/74 412/559/74
f 419/560/74 424/561/74 423/562/74
f 425/547/74 433/563/74 432/546/74 408/564/74 416/548/74
f 433/563/74 436/565/74 435/550/74 432/546/74
f 427/566/76 425/547/76 436/565/76
f 429/567/77 428/568/77 425/555/77 416/569/77 417/570/77
f 430/571/74 429/572/74 417/573/74 418/558/74
f 430/574/74 431/575/74 428/576/74
f 427/563/74 425/547/74 411/577/74 409/578/74 426/546/74
f 428/568/78 431/567/78 413/579/78 411/580/78 425/555/78
f 430/581/74 414/582/74 413/583/74 431/584/74
f 428/585/74 429/572/74 430/581/74
f 423/586/74 420/587/74 419/588/74
f 436/565/76 425/547/76 433/566/76
f 436/565/74 427/563/74 426/546/74 435/550/74
f 435/589/74 434/590/74 422/591/74 421/592/74
f 451/593/74 442/594/74 435/595/74
f 440/596/74 443/597/74 444/598/74
f 452/599/74 451/593/74 435/595/74 453/600/74
f 446/566/76 453/565/76 445/547/76
f 449/574/74 447/576/74 450/575/74
f 446/563/74 426/546/74 409/601/74 437/602/74 445/547/74
f 421/603/75 422/604/75 442/605/75 440/606/75 419/607/75
f 447/568/79 445/555/79 437/608/79 438/579/79 450/567/79
f 449/581/74 450/584/74 438/583/74 439/582/74
f 447/609/74 449/610/74 448/611/74
f 443/612/74 440/613/74 441/614/74
f 453/600/74 445/615/74 452/599/74
f 453/600/74 435/595/74 426/616/74 446/617/74
f 435/589/74 442/618/74 422/591/74 434/590/74
f 441/614/74 440/613/74 447/609/74 448/611/74
f 442/619/79 451/620/79 452/621/79 445/622/79 447/623/79 440/624/79
f 424/561/74 419/560/74 440/596/74 444/598/74
l 443 449
l 423 443
o Serwers.002.mesh.011
v 19.560541 -1.472444 31.203449
v 15.173605 -1.472444 35.590378
v 20.540033 -1.472444 31.203451
v 15.173606 -1.472444 34.610886
v 20.717863 -0.701551 31.203451
v 15.173607 -0.701551 34.433052
v 15.173608 -0.701551 32.942368
v 22.208549 -0.701551 31.203453
v 18.581049 -1.472444 31.203449
v 18.403217 -0.701551 31.203449
v 16.912531 -0.701551 31.203447
v 20.717859 -0.701551 34.433060
v 20.717861 -0.701551 32.942375
v 20.540028 -1.472444 34.610889
v 20.540028 -1.472444 35.590382
v 22.208548 -0.701551 32.942375
v 22.208546 -0.701551 34.433060
v 18.581045 -1.472444 34.610889
v 18.581043 -1.472444 35.590382
v 18.581043 -1.472444 34.959000
v 18.403214 -0.701551 34.433056
v 18.403215 -0.701551 32.942371
v 16.912529 -0.701551 32.942368
v 16.912527 -0.701551 34.433056
v 19.560537 -1.472444 34.610889
v 18.929157 -1.472444 34.610889
v 20.050282 -1.472444 35.590382
v 19.560535 -1.472444 35.590382
v 18.988003 -1.472444 35.017845
v 15.173604 -1.472444 36.569870
v 15.173603 -0.701551 36.747700
v 15.173602 -0.701551 38.238388
v 20.717857 -0.701551 36.747707
v 20.717855 -0.701551 38.238392
v 20.540026 -1.472444 36.569878
v 22.208542 -0.701551 38.238396
v 22.208542 -0.701551 36.747707
v 18.581041 -1.472444 36.569874
v 18.581043 -1.472444 36.221760
v 18.403212 -0.701551 36.747704
v 18.403210 -0.701551 38.238388
v 16.912523 -0.701551 38.238388
v 16.912525 -0.701551 36.747704
v 19.560534 -1.472444 36.569874
v 18.929155 -1.472444 36.569874
v 18.988001 -1.472444 36.162914
vn -0.0000 1.0000 -0.0000
vn -0.9744 0.2248 -0.0000
vn -0.0000 -1.0000 -0.0000
vn 0.9744 0.2248 -0.0000
vn -0.0000 0.2248 0.9744
vn -0.0000 0.2248 -0.9744
vt 0.308444 1.237606
vt 0.308444 1.006753
vt -0.494644 1.006753
vt -0.494644 1.237606
vt 0.539298 1.237606
vt 0.266532 0.195233
vt -0.084803 0.195233
vt -0.494644 0.195233
vt -0.494644 0.013544
vt 0.308444 0.013544
vt -0.084803 0.997347
vt -0.084803 0.646012
vt -0.494644 0.646012
vt -0.494644 0.997347
vt 0.286431 0.993740
vt 0.286431 0.678370
vt -0.028939 0.678370
vt 0.308444 1.088799
vt -0.494644 1.237606
vt 0.404359 1.102668
vt 0.390490 1.006753
vt -0.084803 0.195233
vt 0.266532 0.195233
vt -0.494644 0.013544
vt -0.494644 0.195233
vt -0.084803 0.646012
vt -0.084803 0.997347
vt -0.494644 0.997347
vt -0.040246 0.691459
vt -0.040246 0.995588
vt 0.263883 0.995588
vt -0.494644 1.006753
vt -0.494644 1.237606
vt -0.494644 0.195233
vt -0.494644 0.013544
vt -0.084803 0.684337
vt -0.499574 0.684337
vt -0.499574 0.997347
vt -0.084803 0.997347
vt 0.266532 0.997347
vt 0.002985 0.647853
vt 0.002985 0.999616
vt 0.354747 0.999616
vt 0.540353 0.267298
vt 0.540353 0.138265
vt 0.540353 0.009232
vt 0.282287 0.009232
vt 0.307067 0.009087
vt 0.066198 0.009087
vt 0.307067 0.249956
vt 0.776119 0.993740
vt 1.091489 0.678370
vt 0.776119 0.678370
vt 0.462331 0.009087
vt 0.447860 0.109163
vt -0.494644 1.237607
vt -0.494644 1.006753
vt 0.277052 0.012437
vt 0.522747 0.012437
vt 0.768441 0.012437
vt 0.813048 0.205807
vt 0.232445 0.205807
vt -0.494644 0.013544
vt 0.718527 0.992064
vt 1.000000 0.710591
vt 0.718527 0.710591
vt 0.000000 0.710591
vt 0.281473 0.992064
vt 0.281473 0.710591
vt 0.547936 0.009087
vt 0.547936 0.249956
vt 0.547936 0.094692
vt 0.798419 0.009232
vt 0.278401 0.012236
vt 0.524096 0.012236
vt 0.682470 0.012236
vt 0.769790 0.012236
vt 0.814397 0.205606
vt 0.233794 0.205606
s 1
usemtl concrete_base.003
f 478/625/80 467/626/80 456/627/80 454/628/80
f 478/625/80 481/629/80 467/626/80
f 465/630/81 466/631/81 458/632/81 456/633/81 467/634/81
f 466/635/80 469/636/80 461/637/80 458/638/80
f 465/639/80 470/640/80 469/641/80
f 471/626/80 479/642/80 478/625/80 454/643/80 462/627/80
f 479/642/80 482/644/80 481/629/80 478/625/80
f 473/645/82 471/626/82 482/644/82
f 475/646/83 474/647/83 471/634/83 462/648/83 463/649/83
f 476/650/80 475/651/80 463/652/80 464/637/80
f 476/653/80 477/654/80 474/655/80
f 473/642/80 471/626/80 457/656/80 455/657/80 472/625/80
f 474/647/84 477/646/84 459/658/84 457/659/84 471/634/84
f 476/660/80 460/661/80 459/662/80 477/663/80
f 474/664/80 475/651/80 476/660/80
f 469/665/80 466/666/80 465/667/80
f 482/644/82 471/626/82 479/645/82
f 482/644/80 473/642/80 472/625/80 481/629/80
f 481/668/80 480/669/80 468/670/80 467/671/80
f 497/672/80 488/673/80 481/674/80
f 486/675/80 489/676/80 490/677/80
f 498/678/80 497/672/80 481/674/80 499/679/80
f 492/645/82 499/644/82 491/626/82
f 495/653/80 493/655/80 496/654/80
f 492/642/80 472/625/80 455/680/80 483/681/80 491/626/80
f 467/682/81 468/683/81 488/684/81 486/685/81 465/686/81
f 493/647/85 491/634/85 483/687/85 484/658/85 496/646/85
f 495/660/80 496/663/80 484/662/80 485/661/80
f 493/688/80 495/689/80 494/690/80
f 489/691/80 486/692/80 487/693/80
f 499/679/80 491/694/80 498/678/80
f 499/679/80 481/674/80 472/695/80 492/696/80
f 481/668/80 488/697/80 468/670/80 480/669/80
f 487/693/80 486/692/80 493/688/80 494/690/80
f 488/698/85 497/699/85 498/700/85 491/701/85 493/702/85 486/703/85
f 470/640/80 465/639/80 486/675/80 490/677/80
l 489 495
l 469 489
o Serwers_008.mesh.007
v 19.560539 -1.472444 31.426928
v 19.560545 -1.472444 27.962444
v 18.581053 -1.472444 27.962442
v 18.581047 -1.472444 31.426926
v 18.403217 -0.701551 31.426926
v 18.403221 -0.701551 27.962442
v 16.912537 -0.701551 27.962440
v 16.912531 -0.701551 31.426924
v 20.540037 -1.472444 27.962446
v 20.540031 -1.472444 31.426929
v 20.717863 -0.701551 31.426929
v 20.717869 -0.701551 27.962446
v 22.208553 -0.701551 27.962448
v 22.208548 -0.701551 31.426931
vn -0.0000 1.0000 -0.0000
vn 0.9744 0.2248 -0.0000
vn -0.9744 0.2248 -0.0000
vt -0.258957 1.006753
vt -0.258957 1.237606
vt 0.557576 1.237606
vt 0.557576 1.006753
vt -0.258957 0.195233
vt -0.258957 0.013544
vt 0.557576 0.013544
vt 0.557576 0.195233
vt -0.258957 0.646012
vt -0.258957 0.997347
vt 0.557576 0.997347
vt 0.557576 0.646012
s 1
usemtl concrete_base.005
f 503/704/86 500/705/86 501/706/86 502/707/86
f 504/708/87 503/709/87 502/710/87 505/711/87
f 507/712/86 504/713/86 505/714/86 506/715/86
f 509/704/86 508/707/86 501/706/86 500/705/86
f 510/708/88 511/711/88 508/710/88 509/709/88
f 513/712/86 512/715/86 511/714/86 510/713/86
o Serwers_007.mesh.006
v 36.204483 -1.472444 -11.867311
v 29.430624 -1.472444 -11.867315
v 29.430622 -1.472444 -10.887823
v 36.204483 -1.472444 -10.887819
v 36.204483 -0.701551 -10.709988
v 29.430622 -0.701551 -10.709992
v 29.430622 -0.701551 -9.219307
v 36.204483 -0.701551 -9.219302
v 29.430624 -1.472444 -12.846807
v 36.204487 -1.472444 -12.846804
v 36.204487 -0.701551 -13.024634
v 29.430624 -0.701551 -13.024639
v 29.430626 -0.701551 -14.515325
v 36.204487 -0.701551 -14.515320
v 32.283436 -0.701551 -9.219305
v 33.351669 -0.701551 -9.219304
v 33.351669 -0.701551 -7.516809
v 32.283436 -0.701551 -7.516810
vn -0.0000 1.0000 -0.0000
vn -0.0000 0.2248 -0.9744
vn -0.0000 0.2248 0.9744
vt -0.258957 1.006753
vt -0.258957 1.237606
vt 1.337553 1.237606
vt 1.337553 1.006753
vt -0.258957 0.195233
vt -0.258957 0.013544
vt 1.337553 0.013544
vt 1.337553 0.195233
vt -0.258957 0.646012
vt 1.337553 0.646012
vt 1.337553 0.997347
vt -0.258957 0.997347
vt 0.413414 0.646012
vt 0.665182 0.646012
vt 0.413414 0.244756
vt 0.665182 0.244756
s 1
usemtl concrete_base.001
f 517/716/89 514/717/89 515/718/89 516/719/89
f 518/720/90 517/721/90 516/722/90 519/723/90
f 523/716/89 522/719/89 515/718/89 514/717/89
f 524/720/91 525/723/91 522/722/91 523/721/91
f 527/724/89 526/725/89 525/726/89 524/727/89
f 529/728/89 521/724/89 518/727/89 519/726/89 520/725/89 528/729/89
f 530/730/89 529/728/89 528/729/89 531/731/89
o SerwersP.003_mesh.012
v 33.351665 -0.701550 -7.852530
v 32.283436 -0.701550 -7.852530
v 34.058208 -0.701550 -7.852529
v 31.576889 -0.701550 -7.852531
v 34.058205 -0.701550 -3.665808
v 31.576885 -0.701550 -3.665811
vn -0.0000 1.0000 -0.0000
vt 0.997824 0.994752
vt 0.997824 0.005248
vt -0.671763 0.005248
vt -0.671763 0.994752
s 1
usemtl brick_pavement.001
f 534/732/92 535/733/92 537/734/92 536/735/92
l 535 533
l 534 532
o SerwersP.003_mesh.013
v 32.283421 -0.701550 0.480586
v 33.351650 -0.701550 0.480587
v 31.576878 -0.701550 0.480585
v 34.058197 -0.701550 0.480588
v 31.576883 -0.701550 -3.706135
v 34.058201 -0.701550 -3.706132
vn -0.0000 1.0000 -0.0000
vt 0.997824 0.994752
vt 0.997824 0.005248
vt -0.671763 0.005248
vt -0.671763 0.994752
s 1
usemtl brick_pavement.001
f 540/736/93 541/737/93 543/738/93 542/739/93
l 541 539
l 540 538
o Serwers_011.mesh.008
v 25.567129 -1.472444 0.000010
v 29.031612 -1.472444 0.000013
v 29.031612 -1.472444 -0.979479
v 25.567131 -1.472444 -0.979482
v 25.567131 -0.701551 -1.157313
v 29.031614 -0.701551 -1.157310
v 29.031614 -0.701551 -2.647995
v 25.567131 -0.701551 -2.647999
v 29.031612 -0.701551 0.000013
v 29.031610 -1.472444 0.979506
v 25.567127 -1.472444 0.979502
v 25.567127 -0.701551 1.157333
v 29.031610 -0.701551 1.157337
v 29.031609 -0.701551 2.648022
v 25.567125 -0.701551 2.648018
vn -0.0000 1.0000 -0.0000
vn -0.0000 0.2248 0.9744
vn -1.0000 -0.0000 -0.0000
vn -0.0000 0.2248 -0.9744
vt -0.258957 1.006753
vt -0.258957 1.237606
vt 0.557576 1.237606
vt 0.557576 1.006753
vt -0.258957 0.195233
vt -0.258957 0.013544
vt 0.557576 0.013544
vt 0.557576 0.195233
vt -0.258957 0.646012
vt -0.258957 0.997347
vt 0.557576 0.997347
vt 0.557576 0.646012
vt 0.555361 0.005290
vt 0.555361 0.202338
vt 0.259536 0.202338
vt 0.304992 0.005290
s 1
usemtl concrete_base.004
f 547/740/94 544/741/94 545/742/94 546/743/94
f 548/744/95 547/745/95 546/746/95 549/747/95
f 551/748/94 548/749/94 549/750/94 550/751/94
f 545/752/96 552/753/96 549/754/96 546/755/96
f 554/740/94 553/743/94 545/742/94 544/741/94
f 555/744/97 556/747/97 553/746/97 554/745/97
f 558/748/94 557/751/94 556/750/94 555/749/94
f 545/752/96 553/755/96 556/754/96 552/753/96
o SerwersMx_001.mesh.004
v 0.000001 -1.472445 -3.733507
v 4.386931 -1.472444 -8.120438
v -4.386930 -1.472445 -8.120438
v -4.386930 -1.472445 -7.140945
v -0.979491 -1.472445 -3.733507
v 4.386931 -1.472444 -7.140945
v -1.157322 -0.701552 -3.733507
v 4.386931 -0.701551 -6.963114
v -4.386930 -0.701552 -6.963114
v -4.386930 -0.701552 -5.472428
v 4.386931 -0.701551 -5.472428
v -2.648008 -0.701552 -3.733507
v 0.979493 -1.472445 -3.733507
v 1.157324 -0.701552 -3.733507
v 2.648010 -0.701551 -3.733507
v -1.157322 -0.701551 -6.963114
v -1.157322 -0.701551 -5.472428
v -0.979491 -1.472445 -7.140945
v -0.979491 -1.472445 -8.120438
v -2.648008 -0.701552 -5.472428
v -2.648008 -0.701552 -6.963114
v 0.979493 -1.472445 -7.140945
v 0.979493 -1.472445 -8.120438
v 0.979493 -1.472445 -7.489058
v 1.157324 -0.701551 -6.963114
v 1.157324 -0.701551 -5.472428
v 2.648010 -0.701551 -5.472428
v 2.648010 -0.701551 -6.963114
v 0.000001 -1.472445 -7.140945
v 0.631380 -1.472445 -7.140945
v -0.489745 -1.472445 -8.120438
v 0.000001 -1.472445 -8.120438
v 0.572535 -1.472445 -7.547903
v -4.386930 -1.472445 -8.120439
v 4.386931 -1.472444 -8.120437
v 4.386931 -1.472444 -9.099929
v -4.386930 -1.472445 -9.099931
v -4.387214 -0.701551 -9.277761
v 4.386931 -0.701550 -9.277760
v 4.386931 -0.701550 -10.768446
v -4.387214 -0.701551 -10.768447
v 0.534114 -0.701551 -10.768446
v -0.534118 -0.701551 -10.768446
v -0.534119 -0.701551 -12.470942
v 0.534114 -0.701551 -12.470942
vn -0.0000 1.0000 -0.0000
vn 0.9744 0.2248 -0.0000
vn -0.9744 0.2248 -0.0000
vn -0.0000 0.2248 -0.9744
vn -0.0000 0.2248 0.9744
vt 0.308444 1.237606
vt 0.308444 1.006753
vt -0.494644 1.006753
vt -0.494644 1.237606
vt 0.539298 1.237606
vt 0.266532 0.195233
vt -0.084803 0.195233
vt -0.494644 0.195233
vt -0.494644 0.013544
vt 0.308444 0.013544
vt -0.084803 0.997347
vt -0.084803 0.646012
vt -0.494644 0.646012
vt -0.494644 0.997347
vt 0.736117 0.995588
vt 1.040246 0.995588
vt 1.040246 0.691459
vt 0.308444 1.088799
vt -0.494644 1.237607
vt -0.494644 1.006753
vt 0.404359 1.102668
vt 0.390490 1.006753
vt -0.084803 0.195233
vt 0.266532 0.195233
vt -0.494644 0.013544
vt -0.494644 0.195233
vt -0.084803 0.646012
vt -0.084803 0.997347
vt -0.040246 0.691459
vt -0.040246 0.995588
vt 0.263883 0.995588
vt 0.770151 1.236073
vt 1.573239 1.237779
vt 1.573239 1.007217
vt 0.770151 1.006753
vt -0.494644 1.006753
vt -0.494644 1.237606
vt 1.573239 0.195233
vt 1.163398 0.195233
vt 0.812064 0.195233
vt 0.770151 0.013544
vt 1.573240 0.013544
vt -0.494644 0.013544
vt 1.163399 0.646012
vt 1.163399 0.997347
vt 1.573240 0.997347
vt 1.573240 0.646012
vt -0.084803 0.684337
vt -0.499574 0.684337
vt -0.499574 0.997347
vt -0.084803 0.997347
vt 0.266532 0.997347
vt 0.002985 0.647853
vt 0.002985 0.999616
vt 0.354747 0.999616
vt 0.654724 1.237606
vt -0.258957 1.006753
vt -0.258957 1.237606
vt 1.337553 1.237606
vt 1.337553 1.006753
vt -0.258957 0.195233
vt -0.258957 0.013544
vt 1.337553 0.013544
vt 1.337553 0.195233
vt 0.413414 0.646012
vt -0.258957 0.646012
vt -0.258957 0.997347
vt 1.337553 0.997347
vt 1.337553 0.646012
vt 0.665182 0.646012
vt 0.413414 0.244756
vt 0.665182 0.244756
s 1
usemtl concrete_base.002
f 587/756/98 576/757/98 563/758/98 559/759/98
f 587/756/98 590/760/98 576/757/98
f 574/761/99 575/762/99 565/763/99 563/764/99 576/765/99
f 575/766/98 578/767/98 570/768/98 565/769/98
f 574/770/98 579/771/98 578/772/98
f 580/757/98 588/773/98 587/756/98 559/774/98 571/775/98
f 588/773/98 591/776/98 590/760/98 587/756/98
f 582/777/98 591/776/98 580/757/98
f 584/778/100 583/779/100 580/765/100 571/780/100 572/781/100
f 585/782/98 584/783/98 572/769/98 573/768/98
f 585/784/98 586/785/98 583/786/98
f 577/787/98 561/788/98 562/789/98 576/790/98
f 582/773/98 580/757/98 564/791/98 560/792/98 581/756/98
f 567/793/101 579/794/101 574/795/101 576/796/101 562/797/101
f 583/779/101 586/778/101 566/781/101 564/798/101 580/765/101
f 578/799/98 579/800/98 567/801/98 568/802/98
f 585/803/98 569/804/98 566/805/98 586/806/98
f 583/807/98 584/783/98 585/803/98
f 578/808/98 575/809/98 574/810/98
f 591/776/98 588/777/98 580/757/98
f 591/776/98 582/773/98 581/756/98 590/760/98
f 590/760/98 589/811/98 577/787/98 576/790/98
f 595/812/98 592/813/98 593/814/98 594/815/98
f 596/816/102 595/817/102 594/818/102 597/819/102
f 601/820/98 599/821/98 596/822/98 597/823/98 598/824/98 600/825/98
f 602/826/98 601/820/98 600/825/98 603/827/98
o Serwers_011.mesh.009
v 3.923999 -1.472444 -8.120437
v 7.388482 -1.472444 -8.120435
v 7.388483 -1.472444 -9.099927
v 3.924000 -1.472444 -9.099929
v 3.924000 -0.701551 -9.277760
v 7.388483 -0.701551 -9.277758
v 7.388484 -0.701551 -10.768444
v 3.924001 -0.701551 -10.768446
v 7.388482 -0.701551 -8.120435
v 7.388482 -1.472444 -7.140943
v 3.923998 -1.472444 -7.140945
v 3.923998 -0.701551 -6.963114
v 7.388482 -0.701551 -6.963112
v 7.388481 -0.701551 -5.472426
v 3.923997 -0.701551 -5.472428
vn -0.0000 1.0000 -0.0000
vn -0.0000 0.2248 0.9744
vn -1.0000 -0.0000 -0.0000
vn -0.0000 0.2248 -0.9744
vt -0.258957 1.006753
vt -0.258957 1.237606
vt 0.557576 1.237606
vt 0.557576 1.006753
vt -0.258957 0.195233
vt -0.258957 0.013544
vt 0.557576 0.013544
vt 0.557576 0.195233
vt -0.258957 0.646012
vt -0.258957 0.997347
vt 0.557576 0.997347
vt 0.557576 0.646012
vt 0.555361 0.005290
vt 0.555361 0.202338
vt 0.259536 0.202338
vt 0.304992 0.005290
s 1
usemtl concrete_base.004
f 607/828/103 604/829/103 605/830/103 606/831/103
f 608/832/104 607/833/104 606/834/104 609/835/104
f 611/836/103 608/837/103 609/838/103 610/839/103
f 605/840/105 612/841/105 609/842/105 606/843/105
f 614/828/103 613/831/103 605/830/103 604/829/103
f 615/832/106 616/835/106 613/834/106 614/833/106
f 618/836/103 617/839/103 616/838/103 615/837/103
f 605/840/105 613/843/105 616/842/105 612/841/105
o Serwers_011.mesh.010
v -3.999999 -1.472444 -8.120439
v -7.464482 -1.472444 -8.120440
v -7.464482 -1.472444 -7.140947
v -3.999999 -1.472444 -7.140946
v -3.999999 -0.701551 -6.963115
v -7.464482 -0.701551 -6.963117
v -7.464483 -0.701551 -5.472431
v -4.000000 -0.701551 -5.472430
v -7.464482 -0.701551 -8.120440
v -7.464482 -1.472444 -9.099932
v -3.999999 -1.472444 -9.099931
v -3.999999 -0.701551 -9.277761
v -7.464482 -0.701551 -9.277762
v -7.464481 -0.701551 -10.768448
v -3.999998 -0.701551 -10.768448
vn -0.0000 1.0000 -0.0000
vn -0.0000 0.2248 -0.9744
vn 1.0000 -0.0000 -0.0000
vn -0.0000 0.2248 0.9744
vt -0.258957 1.006753
vt -0.258957 1.237606
vt 0.557576 1.237606
vt 0.557576 1.006753
vt -0.258957 0.195233
vt -0.258957 0.013544
vt 0.557576 0.013544
vt 0.557576 0.195233
vt -0.258957 0.646012
vt -0.258957 0.997347
vt 0.557576 0.997347
vt 0.557576 0.646012
vt 0.555361 0.005290
vt 0.555361 0.202338
vt 0.259536 0.202338
vt 0.304992 0.005290
s 1
usemtl concrete_base.004
f 622/844/107 619/845/107 620/846/107 621/847/107
f 623/848/108 622/849/108 621/850/108 624/851/108
f 626/852/107 623/853/107 624/854/107 625/855/107
f 620/856/109 627/857/109 624/858/109 621/859/109
f 629/844/107 628/847/107 620/846/107 619/845/107
f 630/848/110 631/851/110 628/850/110 629/849/110
f 633/852/107 632/855/107 631/854/107 630/853/107
f 620/856/109 628/859/109 631/858/109 627/857/109
o SerwersP.003_mesh.014
v -0.534117 -0.701550 -12.485724
v 0.534116 -0.701550 -12.485724
v -1.240657 -0.701550 -12.485724
v 1.240661 -0.701550 -12.485724
v -1.240656 -0.701550 -16.672445
v 1.240662 -0.701550 -16.672445
vn -0.0000 1.0000 -0.0000
vt 0.997824 0.994752
vt 0.997824 0.005248
vt -0.671763 0.005248
vt -0.671763 0.994752
s 1
usemtl brick_pavement.001
f 636/860/111 637/861/111 639/862/111 638/863/111
l 637 635
l 636 634
o SerwersMx_001.mesh.005
v 21.901295 -1.472445 -4.386925
v 17.514364 -1.472444 0.000005
v 26.288225 -1.472445 0.000007
v 26.288225 -1.472445 -0.979486
v 22.880787 -1.472445 -4.386925
v 17.514364 -1.472444 -0.979488
v 23.058619 -0.701552 -4.386925
v 17.514364 -0.701551 -1.157319
v 26.288225 -0.701552 -1.157317
v 26.288225 -0.701552 -2.648003
v 17.514364 -0.701551 -2.648004
v 24.549305 -0.701552 -4.386925
v 20.921803 -1.472445 -4.386925
v 20.743973 -0.701552 -4.386925
v 19.253286 -0.701551 -4.386926
v 23.058619 -0.701551 -1.157318
v 23.058619 -0.701551 -2.648004
v 22.880787 -1.472445 -0.979487
v 22.880787 -1.472445 0.000006
v 24.549303 -0.701552 -2.648003
v 24.549303 -0.701552 -1.157318
v 20.921803 -1.472445 -0.979487
v 20.921803 -1.472445 0.000006
v 20.921803 -1.472445 -0.631374
v 20.743971 -0.701551 -1.157318
v 20.743973 -0.701551 -2.648004
v 19.253286 -0.701551 -2.648004
v 19.253286 -0.701551 -1.157318
v 21.901295 -1.472445 -0.979487
v 21.269915 -1.472445 -0.979487
v 22.391041 -1.472445 0.000006
v 21.901295 -1.472445 0.000006
v 21.328760 -1.472445 -0.572529
v 26.288225 -1.472445 0.000007
v 17.514364 -1.472444 0.000004
v 17.514364 -1.472444 0.979497
v 26.288225 -1.472445 0.979499
v 26.288509 -0.701551 1.157330
v 17.514364 -0.701550 1.157328
v 17.514362 -0.701550 2.648013
v 26.288509 -0.701551 2.648016
v 21.367180 -0.701551 2.648015
v 22.435413 -0.701551 2.648015
v 22.435413 -0.701551 4.350510
v 21.367180 -0.701551 4.350510
vn -0.0000 1.0000 -0.0000
vn -0.9744 0.2248 -0.0000
vn 0.9744 0.2248 -0.0000
vn -0.0000 0.2248 0.9744
vn -0.0000 0.2248 -0.9744
vt 0.308444 1.237606
vt 0.308444 1.006753
vt -0.494644 1.006753
vt -0.494644 1.237606
vt 0.539298 1.237606
vt 0.266532 0.195233
vt -0.084803 0.195233
vt -0.494644 0.195233
vt -0.494644 0.013544
vt 0.308444 0.013544
vt -0.084803 0.997347
vt -0.084803 0.646012
vt -0.494644 0.646012
vt -0.494644 0.997347
vt 0.736117 0.995588
vt 1.040246 0.995588
vt 1.040246 0.691459
vt 0.308444 1.088799
vt -0.494644 1.237607
vt -0.494644 1.006753
vt 0.404359 1.102668
vt 0.390490 1.006753
vt -0.084803 0.195233
vt 0.266532 0.195233
vt -0.494644 0.013544
vt -0.494644 0.195233
vt -0.084803 0.646012
vt -0.084803 0.997347
vt -0.040246 0.691459
vt -0.040246 0.995588
vt 0.263883 0.995588
vt 0.770151 1.236073
vt 1.573239 1.237779
vt 1.573239 1.007217
vt 0.770151 1.006753
vt -0.494644 1.006753
vt -0.494644 1.237606
vt 1.573239 0.195233
vt 1.163398 0.195233
vt 0.812064 0.195233
vt 0.770151 0.013544
vt 1.573240 0.013544
vt -0.494644 0.013544
vt 1.163399 0.646012
vt 1.163399 0.997347
vt 1.573240 0.997347
vt 1.573240 0.646012
vt -0.084803 0.684337
vt -0.499574 0.684337
vt -0.499574 0.997347
vt -0.084803 0.997347
vt 0.266532 0.997347
vt 0.002985 0.647853
vt 0.002985 0.999616
vt 0.354747 0.999616
vt 0.654724 1.237606
vt -0.258957 1.006753
vt -0.258957 1.237606
vt 1.337553 1.237606
vt 1.337553 1.006753
vt -0.258957 0.195233
vt -0.258957 0.013544
vt 1.337553 0.013544
vt 1.337553 0.195233
vt 0.413414 0.646012
vt -0.258957 0.646012
vt -0.258957 0.997347
vt 1.337553 0.997347
vt 1.337553 0.646012
vt 0.665182 0.646012
vt 0.413414 0.244756
vt 0.665182 0.244756
s 1
usemtl concrete_base.002
f 668/864/112 657/865/112 644/866/112 640/867/112
f 668/864/112 671/868/112 657/865/112
f 655/869/113 656/870/113 646/871/113 644/872/113 657/873/113
f 656/874/112 659/875/112 651/876/112 646/877/112
f 655/878/112 660/879/112 659/880/112
f 661/865/112 669/881/112 668/864/112 640/882/112 652/883/112
f 669/881/112 672/884/112 671/868/112 668/864/112
f 663/885/112 672/884/112 661/865/112
f 665/886/114 664/887/114 661/873/114 652/888/114 653/889/114
f 666/890/112 665/891/112 653/877/112 654/876/112
f 666/892/112 667/893/112 664/894/112
f 658/895/112 642/896/112 643/897/112 657/898/112
f 663/881/112 661/865/112 645/899/112 641/900/112 662/864/112
f 648/901/115 660/902/115 655/903/115 657/904/115 643/905/115
f 664/887/115 667/886/115 647/889/115 645/906/115 661/873/115
f 659/907/112 660/908/112 648/909/112 649/910/112
f 666/911/112 650/912/112 647/913/112 667/914/112
f 664/915/112 665/891/112 666/911/112
f 659/916/112 656/917/112 655/918/112
f 672/884/112 669/885/112 661/865/112
f 672/884/112 663/881/112 662/864/112 671/868/112
f 671/868/112 670/919/112 658/895/112 657/898/112
f 676/920/112 673/921/112 674/922/112 675/923/112
f 677/924/116 676/925/116 675/926/116 678/927/116
f 682/928/112 680/929/112 677/930/112 678/931/112 679/932/112 681/933/112
f 683/934/112 682/928/112 681/933/112 684/935/112
o SerwersP.003_mesh.015
v 22.435410 -0.701550 4.365294
v 21.367178 -0.701550 4.365293
v 23.141951 -0.701550 4.365294
v 20.660633 -0.701550 4.365292
v 23.141949 -0.701550 8.552014
v 20.660631 -0.701550 8.552012
vn -0.0000 1.0000 -0.0000
vt 0.997824 0.994752
vt 0.997824 0.005248
vt -0.671763 0.005248
vt -0.671763 0.994752
s 1
usemtl brick_pavement.001
f 687/936/117 688/937/117 690/938/117 689/939/117
l 688 686
l 687 685
o SerwersP_003.mesh.005
v 20.012321 -0.701551 9.176388
v 23.138199 -0.701551 8.531832
v 20.012320 -0.701551 11.657706
v 20.656879 -0.701551 8.531831
v 23.138195 -0.701551 12.718553
v 20.656878 -0.701551 12.718551
v 20.656878 -0.701551 11.657706
v 23.138195 -0.701551 11.657708
v 23.138197 -0.701551 9.176390
v 22.756191 -0.701551 9.176390
v 20.656879 -0.701551 9.176389
v 23.138197 -0.701551 11.028983
v 22.042936 -0.701551 10.379862
vn -0.0000 1.0000 -0.0000
vt 0.997824 0.994752
vt 0.997824 0.005248
vt 0.740786 0.005248
vt 0.740786 0.994752
vt -0.248718 0.994752
vt -0.096381 0.994752
vt 0.188052 0.514829
vt -0.248718 0.255972
vt -0.248718 0.005248
vt -0.248718 0.005248
vt -0.671763 0.005248
vt -0.671763 0.994752
vt -0.248718 0.994752
vt 0.740786 0.842415
vt 0.740786 0.994752
vt 0.740786 0.005248
s 1
usemtl brick_pavement.004
f 691/940/118 693/941/118 697/942/118 701/943/118
f 699/944/118 700/945/118 703/946/118 702/947/118
f 697/942/118 698/948/118 702/947/118 703/946/118 700/945/118 701/943/118
f 697/949/118 696/950/118 695/951/118 698/952/118
f 700/953/118 699/954/118 692/940/118 694/941/118 701/955/118
o Serwers_007.mesh.007
v 11.560551 -1.472444 11.203440
v 11.560545 -1.472444 17.977301
v 12.540037 -1.472444 17.977303
v 12.540043 -1.472444 11.203441
v 12.717874 -0.701551 11.203442
v 12.717868 -0.701551 17.977303
v 14.208553 -0.701551 17.977303
v 14.208559 -0.701551 11.203443
v 10.581053 -1.472444 17.977301
v 10.581059 -1.472444 11.203440
v 10.403228 -0.701551 11.203439
v 10.403222 -0.701551 17.977301
v 8.912537 -0.701551 17.977299
v 8.912542 -0.701551 11.203438
v 14.208556 -0.701551 15.124489
v 14.208557 -0.701551 14.056257
v 15.911053 -0.701551 14.056257
v 15.911051 -0.701551 15.124491
vn -0.0000 1.0000 -0.0000
vn -0.9744 0.2248 -0.0000
vn 0.9744 0.2248 -0.0000
vt -0.258957 1.006753
vt -0.258957 1.237606
vt 1.337553 1.237606
vt 1.337553 1.006753
vt -0.258957 0.195233
vt -0.258957 0.013544
vt 1.337553 0.013544
vt 1.337553 0.195233
vt -0.258957 0.646012
vt 1.337553 0.646012
vt 1.337553 0.997347
vt -0.258957 0.997347
vt 0.413414 0.646012
vt 0.665182 0.646012
vt 0.413414 0.244756
vt 0.665182 0.244756
s 1
usemtl concrete_base.001
f 707/956/119 704/957/119 705/958/119 706/959/119
f 708/960/120 707/961/120 706/962/120 709/963/120
f 713/956/119 712/959/119 705/958/119 704/957/119
f 714/960/121 715/963/121 712/962/121 713/961/121
f 717/964/119 716/965/119 715/966/119 714/967/119
f 719/968/119 711/964/119 708/967/119 709/966/119 710/965/119 718/969/119
f 720/970/119 719/968/119 718/969/119 721/971/119
o SerwersP.003_mesh.016
v 15.575333 -0.701550 14.056259
v 15.575331 -0.701550 15.124492
v 15.575333 -0.701550 13.349719
v 15.575331 -0.701550 15.831037
v 19.762054 -0.701550 13.349724
v 19.762051 -0.701550 15.831041
vn -0.0000 1.0000 -0.0000
vt 0.997824 0.994752
vt 0.997824 0.005248
vt -0.671763 0.005248
vt -0.671763 0.994752
s 1
usemtl brick_pavement.001
f 724/972/122 725/973/122 727/974/122 726/975/122
l 725 723
l 724 722
o SerwersP_003.mesh.006
v 23.139656 -0.701551 12.704274
v 23.784212 -0.701551 15.830150
v 20.658339 -0.701551 12.704272
v 23.784214 -0.701551 13.348832
v 19.597490 -0.701551 15.830147
v 19.597492 -0.701551 13.348829
v 20.658339 -0.701551 13.348829
v 20.658337 -0.701551 15.830148
v 23.139654 -0.701551 15.830150
v 23.139654 -0.701551 15.448143
v 23.139656 -0.701551 13.348831
v 21.287060 -0.701551 15.830148
v 21.936182 -0.701551 14.734888
vn -0.0000 1.0000 -0.0000
vt 0.997824 0.994752
vt 0.997824 0.005248
vt 0.740786 0.005248
vt 0.740786 0.994752
vt -0.248718 0.994752
vt -0.096381 0.994752
vt 0.188052 0.514829
vt -0.248718 0.255972
vt -0.248718 0.005248
vt -0.248718 0.005248
vt -0.671763 0.005248
vt -0.671763 0.994752
vt -0.248718 0.994752
vt 0.740786 0.842415
vt 0.740786 0.994752
vt 0.740786 0.005248
s 1
usemtl brick_pavement.004
f 728/976/123 730/977/123 734/978/123 738/979/123
f 736/980/123 737/981/123 740/982/123 739/983/123
f 734/978/123 735/984/123 739/983/123 740/982/123 737/981/123 738/979/123
f 734/985/123 733/986/123 732/987/123 735/988/123
f 737/989/123 736/990/123 729/976/123 731/977/123 738/991/123
o SerwersP_003.mesh.007
v 34.704636 -0.701551 4.000976
v 31.578760 -0.701551 4.645531
v 34.704639 -0.701551 1.519658
v 34.060078 -0.701551 4.645533
v 31.578764 -0.701551 0.458810
v 34.060081 -0.701551 0.458813
v 34.060081 -0.701551 1.519657
v 31.578764 -0.701551 1.519655
v 31.578760 -0.701551 4.000973
v 31.960768 -0.701551 4.000973
v 34.060078 -0.701551 4.000975
v 31.578762 -0.701551 2.148379
v 32.674023 -0.701551 2.797502
vn -0.0000 1.0000 -0.0000
vt 0.997824 0.994752
vt 0.997824 0.005248
vt 0.740786 0.005248
vt 0.740786 0.994752
vt -0.248718 0.994752
vt -0.096381 0.994752
vt 0.188052 0.514829
vt -0.248718 0.255972
vt -0.248718 0.005248
vt -0.248718 0.005248
vt -0.671763 0.005248
vt -0.671763 0.994752
vt -0.248718 0.994752
vt 0.740786 0.842415
vt 0.740786 0.994752
vt 0.740786 0.005248
s 1
usemtl brick_pavement.004
f 741/992/124 743/993/124 747/994/124 751/995/124
f 749/996/124 750/997/124 753/998/124 752/999/124
f 747/994/124 748/1000/124 752/999/124 753/998/124 750/997/124 751/995/124
f 747/1001/124 746/1002/124 745/1003/124 748/1004/124
f 750/1005/124 749/1006/124 742/992/124 744/993/124 751/1007/124
o SerwersP.003_mesh.017
v 34.597527 -0.701550 2.211981
v 34.597527 -0.701550 3.280213
v 34.597527 -0.701550 1.505440
v 34.597523 -0.701550 3.986758
v 38.784248 -0.701550 1.505446
v 38.784245 -0.701550 3.986763
vn -0.0000 1.0000 -0.0000
vt 0.997824 0.994752
vt 0.997824 0.005248
vt -0.671763 0.005248
vt -0.671763 0.994752
s 1
usemtl brick_pavement.001
f 756/1008/125 757/1009/125 759/1010/125 758/1011/125
l 757 755
l 756 754
o Serwers_011.mesh.011
v 35.430618 -1.472444 -11.867311
v 38.895103 -1.472444 -11.867310
v 38.895103 -1.472444 -12.846802
v 35.430622 -1.472444 -12.846804
v 35.430622 -0.701551 -13.024635
v 38.895103 -0.701551 -13.024632
v 38.895103 -0.701551 -14.515318
v 35.430622 -0.701551 -14.515321
v 38.895103 -0.701551 -11.867310
v 38.895103 -1.472444 -10.887817
v 35.430618 -1.472444 -10.887819
v 35.430618 -0.701551 -10.709989
v 38.895103 -0.701551 -10.709987
v 38.895100 -0.701551 -9.219301
v 35.430618 -0.701551 -9.219303
vn -0.0000 1.0000 -0.0000
vn -0.0000 0.2248 0.9744
vn -1.0000 -0.0000 -0.0000
vn -0.0000 0.2248 -0.9744
vt -0.258957 1.006753
vt -0.258957 1.237606
vt 0.557576 1.237606
vt 0.557576 1.006753
vt -0.258957 0.195233
vt -0.258957 0.013544
vt 0.557576 0.013544
vt 0.557576 0.195233
vt -0.258957 0.646012
vt -0.258957 0.997347
vt 0.557576 0.997347
vt 0.557576 0.646012
vt 0.555361 0.005290
vt 0.555361 0.202338
vt 0.259536 0.202338
vt 0.304992 0.005290
s 1
usemtl concrete_base.004
f 763/1012/126 760/1013/126 761/1014/126 762/1015/126
f 764/1016/127 763/1017/127 762/1018/127 765/1019/127
f 767/1020/126 764/1021/126 765/1022/126 766/1023/126
f 761/1024/128 768/1025/128 765/1026/128 762/1027/128
f 770/1012/126 769/1015/126 761/1014/126 760/1013/126
f 771/1016/129 772/1019/129 769/1018/129 770/1017/129
f 774/1020/126 773/1023/126 772/1022/126 771/1021/126
f 761/1024/128 769/1027/128 772/1026/128 768/1025/128
o Serwers_011.mesh.012
v 11.560551 -1.472444 11.977304
v 11.560554 -1.472444 8.512821
v 10.581061 -1.472444 8.512820
v 10.581059 -1.472444 11.977304
v 10.403227 -0.701551 11.977304
v 10.403231 -0.701551 8.512820
v 8.912544 -0.701551 8.512819
v 8.912541 -0.701551 11.977303
v 11.560554 -0.701551 8.512821
v 12.540046 -1.472444 8.512822
v 12.540043 -1.472444 11.977305
v 12.717874 -0.701551 11.977305
v 12.717876 -0.701551 8.512822
v 14.208563 -0.701551 8.512824
v 14.208559 -0.701551 11.977307
vn -0.0000 1.0000 -0.0000
vn 0.9744 0.2248 -0.0000
vn -0.0000 -0.0000 1.0000
vn -0.9744 0.2248 -0.0000
vt -0.258957 1.006753
vt -0.258957 1.237606
vt 0.557576 1.237606
vt 0.557576 1.006753
vt -0.258957 0.195233
vt -0.258957 0.013544
vt 0.557576 0.013544
vt 0.557576 0.195233
vt -0.258957 0.646012
vt -0.258957 0.997347
vt 0.557576 0.997347
vt 0.557576 0.646012
vt 0.555361 0.005290
vt 0.555361 0.202338
vt 0.259536 0.202338
vt 0.304992 0.005290
s 1
usemtl concrete_base.004
f 778/1028/130 775/1029/130 776/1030/130 777/1031/130
f 779/1032/131 778/1033/131 777/1034/131 780/1035/131
f 782/1036/130 779/1037/130 780/1038/130 781/1039/130
f 776/1040/132 783/1041/132 780/1042/132 777/1043/132
f 785/1028/130 784/1031/130 776/1030/130 775/1029/130
f 786/1032/133 787/1035/133 784/1034/133 785/1033/133
f 789/1036/130 788/1039/130 787/1038/130 786/1037/130
f 776/1040/132 784/1043/132 787/1042/132 783/1041/132
o Serwers_011.mesh.013
v -21.590364 -1.472444 -4.371193
v -21.590364 -1.472444 -7.835676
v -22.569857 -1.472444 -7.835676
v -22.569857 -1.472444 -4.371193
v -22.747688 -0.701551 -4.371193
v -22.747688 -0.701551 -7.835676
v -24.238373 -0.701551 -7.835676
v -24.238373 -0.701551 -4.371193
v -21.590364 -0.701551 -7.835676
v -20.610872 -1.472444 -7.835676
v -20.610872 -1.472444 -4.371193
v -20.433041 -0.701551 -4.371193
v -20.433041 -0.701551 -7.835677
v -18.942356 -0.701551 -7.835677
v -18.942356 -0.701551 -4.371193
vn -0.0000 1.0000 -0.0000
vn 0.9744 0.2248 -0.0000
vn -0.0000 -0.0000 1.0000
vn -0.9744 0.2248 -0.0000
vt -0.258957 1.006753
vt -0.258957 1.237606
vt 0.557576 1.237606
vt 0.557576 1.006753
vt -0.258957 0.195233
vt -0.258957 0.013544
vt 0.557576 0.013544
vt 0.557576 0.195233
vt -0.258957 0.646012
vt -0.258957 0.997347
vt 0.557576 0.997347
vt 0.557576 0.646012
vt 0.555361 0.005290
vt 0.555361 0.202338
vt 0.259536 0.202338
vt 0.304992 0.005290
s 1
usemtl concrete_base.004
f 793/1044/134 790/1045/134 791/1046/134 792/1047/134
f 794/1048/135 793/1049/135 792/1050/135 795/1051/135
f 797/1052/134 794/1053/134 795/1054/134 796/1055/134
f 791/1056/136 798/1057/136 795/1058/136 792/1059/136
f 800/1044/134 799/1047/134 791/1046/134 790/1045/134
f 801/1048/137 802/1051/137 799/1050/137 800/1049/137
f 804/1052/134 803/1055/134 802/1054/134 801/1053/134
f 791/1056/136 799/1059/136 802/1058/136 798/1057/136
